<?xml version="1.0" encoding="utf-8"?>
<!-- Generator: Adobe Illustrator 24.3.0, SVG Export Plug-In . SVG Version: 6.00 Build 0)  -->
<svg version="1.1" id="Capa_1" xmlns:v="https://vecta.io/nano"
	 xmlns="http://www.w3.org/2000/svg" xmlns:xlink="http://www.w3.org/1999/xlink" x="0px" y="0px" viewBox="0 0 207.6 207.3"
	 style="enable-background:new 0 0 207.6 207.3;" xml:space="preserve">
<style type="text/css">
	.st0{clip-path:url(#SVGID_2_);}
	.st1{opacity:0.1;}
	.st2{fill-rule:evenodd;clip-rule:evenodd;fill:#606063;}
	.st3{fill:#BEBEBE;}
	.st4{fill:#FAF9FA;}
	.st5{fill-rule:evenodd;clip-rule:evenodd;fill:#633001;}
	.st6{fill:#FEDC90;}
	.st7{fill:#D1884F;}
	.st8{fill-rule:evenodd;clip-rule:evenodd;fill:url(#SVGID_3_);}
	.st9{fill:#9E7200;}
	.st10{fill:#F0B90B;}
	.st11{fill:#E23040;}
	.st12{fill:#FF7881;}
	.st13{fill:#FC5161;}
	.st14{fill:#FFBFBF;}
	.st15{fill:#FF9B2E;}
	.st16{fill:#F9C55D;}
	.st17{fill:#FF7176;}
	.st18{fill:#0A101B;}
	.st19{fill:#2A6589;}
	.st20{fill:#FFDBCC;}
	.st21{fill:#7A0000;}
	.st22{fill:#3F0000;}
	.st23{fill:#FF8F8F;}
	.st24{fill:#DB3A4D;}
	.st25{opacity:0.49;}
	.st26{opacity:0.54;fill:#FFFFFF;}
	.st27{fill:#EFB9B9;}
	.st28{fill-rule:evenodd;clip-rule:evenodd;fill:#FC5161;}
</style>
<g>
	<path class="st14" d="M196.7,74.6c2.1,2.1,2.3,5.3,0.7,7.7c-30.5,43.5-68.1,81.5-111.4,112.4l-3.4,2.4c-2.5,1.8-5.9,1.5-8.1-0.7
		l-15.4-15.4c9.1-9.4,9-24.4-0.3-33.7c-9.3-9.3-24.3-9.4-33.7-0.3L11,133c-2.4-2.4-2.4-6.3,0-8.7c0.2-0.2,0.5-0.5,0.8-0.7l3.4-2.4
		C57.4,91.1,94.1,54,123.9,11.5c2.1-3,6.3-3.3,8.9-0.8l14.4,14.4c-9,9.4-8.9,24.4,0.3,33.6c9.3,9.3,24.2,9.4,33.6,0.3L196.7,74.6
		L196.7,74.6z"/>
	<path class="st27" d="M203.5,78.9l-55,69.6l-71.1,53.8l-13.7-13.8l-4.9-6l4.9-7.1l1.7-7.1l-1-7.6l-2.9-7.1l-4.8-5.7l-5.7-3.8
		l-6.2-1.9h-7.6l-8.1,2.9l-4.8,4.3l-11.4-13.8l18.6-2.8c57.6-8.6,112.1-31.9,158.1-67.6L203.5,78.9L203.5,78.9z"/>
	<g>
		<path class="st28" d="M52.1,181.7c0-2,0.8-4,2.2-5.4l0,0c6.4-6.4,6.4-16.8,0-23.2s-16.8-6.4-23.2,0l0,0c-3,3-7.8,3-10.8,0
			c0,0,0,0,0,0L5.6,138.4c-6-6-5.2-16,1.7-20.9l3.4-2.4l4.4,6.2l-3.4,2.4c-2.8,2-3.4,5.8-1.4,8.6c0.2,0.3,0.4,0.5,0.7,0.8l14.8,14.8
			l0.1-0.1c9.4-9.3,24.6-9.3,33.9,0c9.4,9.4,9.4,24.5,0,33.9l0,0l0,0l14.7,14.7c2.2,2.2,5.6,2.5,8.1,0.7l3.4-2.4
			c43.3-30.8,80.9-68.9,111.4-112.4c1.7-2.4,1.4-5.6-0.7-7.7l-15.4-15.4l-0.2,0.2l-0.2,0.2c-9.4,9.2-24.5,9.2-33.8-0.2
			S137.8,35,147,25.6l0.2-0.2l0.2-0.2l-14.5-14.5c-2.3-2.3-6-2.3-8.3,0c-0.2,0.2-0.5,0.5-0.6,0.8C94.2,54,57.4,91.1,15.2,121.2
			l-4.4-6.2C52.3,85.4,88.4,48.9,117.6,7.1c4.8-6.9,14.6-7.7,20.5-1.8l14.5,14.5c3,3,3,7.8,0,10.8c0,0,0,0-0.1,0.1l-0.1,0.1
			c-6.4,6.4-6.4,16.8,0,23.2c6.4,6.4,16.8,6.4,23.2,0l0.1-0.1c2.9-3,7.8-3,10.8-0.1c0,0,0,0,0.1,0.1l15.4,15.4
			c4.7,4.7,5.3,12,1.5,17.4c-31,44.2-69.2,82.9-113.2,114.2l-3.4,2.4c-5.5,3.9-13.1,3.3-17.9-1.5l-14.7-14.7
			C52.9,185.7,52.1,183.8,52.1,181.7L52.1,181.7z"/>
		<path class="st28" d="M103.9,37.3l3.4,3.4c1.5,1.5,1.4,3.9-0.1,5.4c-1.5,1.4-3.8,1.4-5.3,0l-3.4-3.4c-1.5-1.5-1.4-3.9,0.1-5.4
			C100.1,35.9,102.4,35.9,103.9,37.3z M118,51.5l3.4,3.4c1.5,1.5,1.4,3.9-0.1,5.4c-1.5,1.4-3.8,1.4-5.3,0l-3.4-3.4
			c-1.5-1.5-1.4-3.9,0.1-5.4C114.2,50.1,116.5,50.1,118,51.5L118,51.5z M135.5,74.4c-1.5,1.5-3.9,1.5-5.4,0l-4-4
			c-1.5-1.5-1.4-3.9,0.1-5.4c1.5-1.4,3.8-1.4,5.3,0l4,4C137,70.5,137,72.9,135.5,74.4L135.5,74.4z M149.6,88.5
			c-1.5,1.5-3.9,1.5-5.4,0l-4-4c-1.5-1.5-1.4-3.9,0.1-5.4c1.5-1.4,3.8-1.4,5.3,0l4,4C151.1,84.6,151.1,87,149.6,88.5z M159.7,93.2
			l3.4,3.4c1.5,1.5,1.4,3.9-0.1,5.4c-1.5,1.4-3.8,1.4-5.3,0l-3.4-3.4c-1.5-1.5-1.4-3.9,0.1-5.4C155.9,91.8,158.2,91.8,159.7,93.2z
			 M173.9,107.3l3.4,3.4c1.5,1.5,1.4,3.9-0.1,5.4c-1.5,1.4-3.8,1.4-5.3,0l-3.4-3.4c-1.5-1.5-1.4-3.9,0.1-5.4
			C170.1,105.9,172.4,105.9,173.9,107.3z"/>
	</g>
	<g>
		<g>
			<g>
				<g>
					<g>
						<g>
							<path class="st14" d="M132.5,116.7c0,0.4,0,0.7,0,1.1c-0.5,14-10.3,25.6-23.4,28.8c-2.4,0.6-4.9,0.9-7.4,0.9
								c-2.4,0-4.7-0.3-6.9-0.8c-2.3-0.5-4.5-1.3-6.5-2.3c-5.2-2.5-9.6-6.5-12.7-11.4c-0.9-1.5-1.7-3-2.4-4.6
								c-1.5-3.6-2.4-7.6-2.4-11.8c0-1,0-1.9,0.1-2.9c1.2-12.6,9.9-22.9,21.6-26.6c2.9-0.9,5.9-1.4,9.1-1.4c2,0,3.9,0.2,5.7,0.5
								c1.7,0.3,3.4,0.8,5,1.4c5.5,2,10.2,5.6,13.7,10.1c1.4,1.8,2.6,3.8,3.6,5.9C131.5,107.7,132.5,112.1,132.5,116.7z"/>
						</g>
						<g>
							<path class="st13" d="M101.7,81.9c-19.2,0-34.8,15.6-34.8,34.8c0,19.2,15.6,34.8,34.8,34.8s34.8-15.6,34.8-34.8
								C136.5,97.5,120.9,81.9,101.7,81.9z M101.7,147.5c-17,0-30.8-13.8-30.8-30.8s13.8-30.9,30.8-30.9s30.9,13.8,30.9,30.9
								S118.7,147.5,101.7,147.5z"/>
						</g>
					</g>
					<g class="st25">
						<path class="st14" d="M126.1,97.9l-37.8,46.6c-5.2-2.5-9.6-6.5-12.7-11.4l36.8-45.3C117.9,89.8,122.6,93.3,126.1,97.9z"/>
					</g>
					<g class="st25">
						<path class="st14" d="M107.4,86.4l-34.2,42.1c-1.5-3.6-2.4-7.6-2.4-11.8c0-1,0-1.9,0.1-2.9l21.6-26.6c2.9-0.9,5.9-1.4,9.1-1.4
							C103.6,85.8,105.5,86,107.4,86.4z"/>
					</g>
					<g class="st25">
						<path class="st14" d="M132.5,116.7c0,0.4,0,0.7,0,1.1l-23.4,28.8c-2.4,0.6-4.9,0.9-7.4,0.9c-2.4,0-4.7-0.3-6.9-0.8l34.9-43
							C131.5,107.7,132.5,112.1,132.5,116.7z"/>
					</g>
				</g>
			</g>
		</g>
		<g>
			<path class="st11" d="M109.9,114.5c0.3-0.8,0.5-1.5,0.7-2.4c1.6-6.4,0.1-14.2-8.1-16.3c-11.7-3-18.3,7.6-14.6,15.9
				c1.8,4.1,3.8,2.6,4.7,4.8"/>
			<path class="st11" d="M92.5,115.7c1.4,3-6.4,4.1-9.7-0.2c-3.2-4.4,0.8-7.7,2.1-5.3c1.8,3.2-0.8,2.3-0.8,3.2
				c0,0.9,4.4,0.6,3.9-2.3c-0.6-2.9-6-6.9-9.1-1.5c-3.1,5.4,4.4,10.6,8,11.3c3.6,0.7,2.1,3.9-3.1,3.3l0.5,3.8c4.3,0,8-2.8,10.1,0.5
				c2.1,3.2,0.1,2.2-2,2.2c-2.1,0,0.2,4.7,3.5,3.6c3.3-1.1,4.6-5.3,8.9-3.6c5.4,3.8,11.1,8.3,16.2,3.2c3.3-3.3-1.1-5.4-3-3.1
				c-1.9,2.2-5.8-1-4.3-2.8c1.6-1.8,5.5,0.2,8.9-3.1c3.4-3.4,0-7-0.6-6.4c-0.6,0.6-0.3,4.5-4.6,3c-3.6-1.3-3.5-3.3-2.3-3.7
				c2.4-0.8,5.7-2.7,4-7.1c-1.8-4.4-6.8-2.9-7.2-0.4c-0.5,3,3.2,4.3,3.9,2.9c0.2-0.4-0.2-0.5-1.1-0.9c-0.7-0.3-1.5-2,0.5-2
				c2,0,3.3,5.9-2.9,4.5c-2.4-0.5-1.8-1.2-1.6-2.2"/>
			<path class="st12" d="M117.9,109.2c0.5,0.6-0.3,0.6-1.2,0.1c-1.7-0.7-3.2-0.3-3.6,0.7c-0.6,1.6,1.3,2.8,1.2,3.1
				c-0.2,0.3-1.9,0.4-2.6-2C111.1,108.6,115.6,106,117.9,109.2z"/>
			<path class="st12" d="M87,109.2c1.3,1.2,1.7,4.5-1.9,4.2c-0.3-0.3,1.9-1.5,1-3.5C85.1,107.8,86.4,108.5,87,109.2z"/>
			<path class="st13" d="M94.4,113.8c1.1,1.4,0.6,4.6-4.1,4.8c-4.7,0.2-8.4-2.1-9-5.4c-0.6-3.3,2.4-4.8,3.8-3.5
				c-1.8-2.5-6.2-1-5.8,4.3c0.4,5.3,10.1,9.9,17.2,5.5C103.6,115.2,94.4,113.8,94.4,113.8z"/>
			<g>
				<path class="st14" d="M112.1,112.2c0,0.5,0.8,0.4,0.5-0.2C112.3,111.4,112.1,111.9,112.1,112.2z"/>
				<path class="st14" d="M111.5,110.9c0,0.4,0.6,0.5,0.6,0C112.1,110.3,111.5,110.2,111.5,110.9z"/>
				<path class="st14" d="M111.6,109.6c-0.1,0.4,0.5,0.6,0.6,0.1C112.3,109.1,111.7,108.9,111.6,109.6z"/>
				<path class="st14" d="M112.2,108.5c-0.3,0.4,0.3,0.9,0.7,0.4C113.2,108.4,112.6,107.9,112.2,108.5z"/>
				<path class="st14" d="M113.2,107.7c-0.4,0.3,0.1,1.1,0.7,0.6C114.4,107.8,113.8,107.2,113.2,107.7z"/>
				<path class="st14" d="M114.7,107.3c-0.6,0.1-0.5,1,0.3,0.9C115.7,108,115.5,107.1,114.7,107.3z"/>
				<path class="st14" d="M116.2,107.6c-0.6-0.1-0.8,0.8,0,0.9C117,108.6,117.1,107.7,116.2,107.6z"/>
				<path class="st14" d="M117.7,108.2c-0.7-0.3-1.1,0.6-0.3,1C118.4,109.6,118.7,108.6,117.7,108.2z"/>
				<path class="st14" d="M119,109.8c-0.4-0.6-1.4-0.1-0.8,0.7C118.8,111.3,119.7,110.7,119,109.8z"/>
				<path class="st14" d="M119.8,111.6c-0.1-0.6-1.1-0.5-0.9,0.2C119.1,112.6,120,112.5,119.8,111.6z"/>
				<path class="st14" d="M119.8,113.2c0.1-0.5-0.7-0.8-0.9-0.1C118.8,113.8,119.6,114,119.8,113.2z"/>
				<path class="st14" d="M119.6,114.8c0.1-0.4-0.5-0.8-0.7-0.2C118.6,115.2,119.3,115.5,119.6,114.8z"/>
			</g>
			<path class="st11" d="M123.7,123.1c3.2-6.4-3.8-10.1-6.7-7.8c-2.9,2.3,0.8,5.2,1.2,4.2c0.4-1-2.4-1.5,0.1-2.9
				c2.2-1.2,3.8,1.6,2.7,4.1"/>
			<path class="st11" d="M118.1,116.7c-1,0.7-0.8,1.9,0.3,1.8c0.7-0.1,0.2-1,0.5-1.1c0.7-0.3,1.7,2.2-0.2,2.6
				c-1.9,0.5-3.5-1.6-2.7-3.3"/>
			<path class="st12" d="M119.5,118.6c0.2-1.1-0.7-1.5-0.8-0.6c-0.1,0.8-1.3,1.2-1.8-0.1c-0.5-1.3,1.7-3.1,4.7-1.8
				c1.3,0.5,0.7-0.3,0.1-0.7c-2.4-1.5-6-0.4-6,2.3C115.7,120.3,119.2,120.4,119.5,118.6z"/>
			<path class="st15" d="M111.6,124c-1.2,1.7,0.4,6.7,4,7.4c-1.9-0.5-2.3-3.3-1.3-4c1-0.7,7.8,1.2,9.9-5.9
				C121,128.1,112.8,122.3,111.6,124z"/>
			<path class="st16" d="M112.6,124.6c-1.4,0.6-0.4,3.2,0.3,4.5c0.7,1.3,0.5,0.5,0.4-0.7c-0.1-1.2,0.4-1.4,3-1.6
				c2.6-0.2,2.7-1.3,0.6-1.4C114.9,125.4,114.1,124,112.6,124.6z"/>
			<path class="st13" d="M100.9,125c1.7-1.6,3.8,2.1,8.5,5.9c5.2,4.1,10.8,3.4,11.2-0.2c-3.7,4.4-11.2-0.7-9.6-7.9
				c1.9-1,6.5,3.2,10.5-0.1c2.3-1.9,1.8-5.7-1.2-6.2c1.1,0.3,1.9,2.4,1.1,4.2c-0.8,1.8-3.4,2-6.4-0.3c-1.3-1-1.5-2.6,0.5-3.6
				c2.5-1.3,3.2-4.4,1.1-5.8c1.8,3.9-2.9,5.1-5.5,3.9c-2.6-1.1-1.4-2.1-0.8-4.4c0.4-1.4,0.5-2.6-1.7-5.1c-4.6-5.2-15.7-5.3-16.5,1.3
				c-0.6,5.8,6.6,6.7,2.5,12.8c-2.7,4-9.3,7-14.4,3.8c2.6,4.9,7.7,4.2,13.1,1.9c2.1-0.9,3.9,4.5,1.6,7
				C98.5,130.7,99.4,126.4,100.9,125z"/>
			<path class="st11" d="M116,122c-2.6-0.9-3.6,1.2-1.6,1.8C116.5,124.4,117.8,122.6,116,122z"/>
			<g>
				<path class="st14" d="M116,117.8c0.3,0.5,0.9,0.1,0.4-0.5C116.1,116.7,115.8,117.4,116,117.8z"/>
				<path class="st14" d="M116.2,116c-0.3,0.5,0.3,0.9,0.7,0.2C117.3,115.5,116.6,115.2,116.2,116z"/>
				<path class="st14" d="M117.4,114.8c-0.5,0.3-0.2,1,0.5,0.5C118.5,114.9,118.2,114.3,117.4,114.8z"/>
				<path class="st14" d="M119,114.4c-0.6,0.1-0.6,1.1,0.2,0.9C120,115.2,119.9,114.2,119,114.4z"/>
				<path class="st14" d="M120.6,114.5c-0.7,0-1,1.1-0.1,1.1C121.5,115.6,121.7,114.5,120.6,114.5z"/>
				<path class="st14" d="M122.4,115.2c-0.6-0.4-1.4,0.5-0.7,1C122.5,116.8,123.2,115.8,122.4,115.2z"/>
				<path class="st14" d="M123.6,116.5c-0.4-0.6-1.5,0.1-0.9,0.9C123.2,118.1,124.2,117.3,123.6,116.5z"/>
				<path class="st14" d="M124.4,118.3c-0.3-0.8-1.6-0.3-1.3,0.7C123.6,120,124.9,119.4,124.4,118.3z"/>
				<path class="st14" d="M124.7,120.7c0.1-0.9-1.1-1.2-1.4,0C122.9,121.9,124.5,122.1,124.7,120.7z"/>
				<path class="st14" d="M123.4,123.2c0.5-0.6-0.3-1.3-1-0.5C121.7,123.6,122.7,124.1,123.4,123.2z"/>
				<path class="st14" d="M121.3,124.4c0.6-0.4,0.2-1.3-0.6-0.8C119.8,124.1,120.3,125,121.3,124.4z"/>
				<path class="st14" d="M118.9,124.8c0.6,0.1,1-0.7,0.1-0.9C118.1,123.8,117.9,124.6,118.9,124.8z"/>
				<path class="st14" d="M116.8,124.5c0.5,0.2,0.9-0.4,0.3-0.6C116.4,123.6,116.1,124.2,116.8,124.5z"/>
				<path class="st14" d="M115.2,123.8c0.4,0,0.6-0.6,0-0.6C114.6,123.2,114.5,123.8,115.2,123.8z"/>
			</g>
			<path class="st11" d="M117.9,130.7c2.4-2.4,1.4-6.3-1.5-5.6c-2,0.4-0.2,2.1-1.1,3c-0.9,0.9-3.8-3.9,0.5-5.2
				c4.2-1.3,9.6,2.6,5.9,9.9"/>
			<path class="st13" d="M118.9,131.9c1.7-0.9,2.4-4.1,1.3-6.6c-1.1-2.5-4.4-1.7-5.1-0.5c-0.7,1.2-0.4,2.2-0.9,2.2c-0.5,0-1-3,1.7-4
				c2.8-1,6.5,0.9,6.6,4.4c0.1,3.5-2.7,7.5-7.6,6.2"/>
			<path class="st13" d="M109.3,114.6c1.8-3,3.1-11.5-1.8-15.8c-5.1-4.6-13.1-3-16.4,1.9c-6,9,4.8,11.8,5.3,16.8"/>
			<path class="st17" d="M102.4,97c8.3,0.2,12.6,14.7,2,16.7C93,115.8,88.1,96.6,102.4,97z"/>
			<path class="st15" d="M78.4,113.9c1.8,2.9,5.6,6.4,9.4,6.7c3.8,0.3,2.3,3.2-2.4,3.7C86.1,122.8,79,120.9,78.4,113.9z"/>
			<path class="st16" d="M80.4,117.8c1.5,1.4,4.2,2.9,5.9,3.4c1.6,0.5,0.5,2.2-1.2,1.6c-1.7-0.6-3.8-2.6-4.9-4
				S79.7,117.1,80.4,117.8z"/>
			<path class="st15" d="M92.5,126c1.9,0.6,3.1,3.7,1.4,4.6c0.1-1.1-0.9-3.9-4.4-3.2C91.5,126,92.5,126,92.5,126z"/>
			<path class="st15" d="M117.1,136c-3.6-0.2-6.5-2-10.3-5.7c-3.7-3.7-5.6-4.7-8-0.8c-2.4,3.9-5.2,5.5-9,4c2.5,2.5,6.3,3.2,10.6-1.4
				c2.3-2.4,4.5-0.7,7.2,1.1C110.4,135.1,115.2,136.8,117.1,136z"/>
			<path class="st11" d="M94.7,129.3c0,0.7-0.9,1.9-2.9,0.8c-2.1-1.1-0.7-4.2,1.5-3.6c1.1,0.3,1.5,0.1,1-0.7
				c-1.3-1.9-5.1-2.6-6.8,1.9c-1.9,5.2,6.2,10,9.9,3.6"/>
			<path class="st13" d="M89.4,132.7c-4.4-3.6,0.3-11.2,4.5-7.1c-2.7-1.1-5.7,1.7-3.9,4.5c1.1,1.7,6.2,2.4,6.1-1.5
				c1.3-1.9,2.9-2.5,2.6-0.2C98.1,132,93.4,136,89.4,132.7z"/>
			<path class="st11" d="M83.7,124.2c-5.3-0.7-4.1-3.2-3.1-3.5c1.7-0.6,1.1,1.7,2.3,1.1c1.6-1-1.6-5.3-4.3-1.7
				c-2.2,2.9,1.3,8.5,6.4,7.9"/>
			<path class="st16" d="M102,128.6c2.5-0.5,4.8,2.6,5.8,3.5c1,0.9,0.8,1.3-0.8,0.3c-1.6-0.9-3-2.2-4.9-1.7
				c-1.9,0.5-3.4,3.3-4.4,3.2C96.7,133.9,99.3,129.1,102,128.6z"/>
			<path class="st12" d="M82.3,120.2c-1.3-1.4-3-0.2-3.4,0.9c-0.6,1.6,0.1,2.9-0.6,2.8c-0.7-0.1-0.9-3.2,0.5-4.3
				C80.2,118.5,82.4,118.5,82.3,120.2z"/>
			<g>
				<path class="st14" d="M115.3,122.5c-0.9,0.2-0.5,1.2,0.4,0.8C116.5,122.9,115.7,122.4,115.3,122.5z"/>
				<path class="st14" d="M113.7,124.2c-0.3,0.6,0.4,0.9,0.6,0.2C114.6,123.7,113.9,123.9,113.7,124.2z"/>
				<path class="st14" d="M117.2,122c-0.7,0-0.8,0.9,0.1,0.9C118.2,123,118.2,122,117.2,122z"/>
				<path class="st14" d="M119.1,122.4c-0.7-0.1-1,0.8-0.1,0.9C120,123.5,120.1,122.6,119.1,122.4z"/>
				<path class="st14" d="M121.1,123.3c-0.6-0.4-1.4,0.5-0.6,1.1C121.3,124.9,122,123.9,121.1,123.3z"/>
				<path class="st14" d="M122.4,124.9c-0.6-0.6-1.7,0.2-0.9,1C122.3,126.7,123.3,125.8,122.4,124.9z"/>
				<path class="st14" d="M123.2,127.2c-0.2-0.9-1.6-0.8-1.4,0.4C122.1,128.8,123.5,128.5,123.2,127.2z"/>
				<path class="st14" d="M123.4,129.6c0.1-1-1.4-1.2-1.5,0C121.8,130.9,123.3,131.1,123.4,129.6z"/>
				<path class="st14" d="M122.6,132.2c0.4-1-1.1-1.8-1.6-0.4C120.5,133.2,122.1,133.7,122.6,132.2z"/>
				<path class="st14" d="M120.8,134.8c0.9-0.7,0-2.2-1.2-1.3C118.3,134.4,119.4,135.8,120.8,134.8z"/>
				<path class="st14" d="M117.7,136.1c0.9-0.2,0.8-1.6-0.4-1.4C116,135,116.3,136.4,117.7,136.1z"/>
				<path class="st14" d="M114.9,136.3c0.8,0.2,1.3-1.1,0.1-1.3C113.9,134.7,113.6,136,114.9,136.3z"/>
				<path class="st14" d="M112.4,135.5c0.7,0.2,1.2-0.8,0.2-1.1C111.7,134,111.3,135.1,112.4,135.5z"/>
				<path class="st14" d="M110.2,134.2c0.5,0.3,1.1-0.4,0.4-0.8C109.9,132.9,109.5,133.7,110.2,134.2z"/>
				<path class="st14" d="M108.3,132.7c0.4,0.3,0.9-0.4,0.3-0.7C108,131.6,107.6,132.3,108.3,132.7z"/>
			</g>
			<g>
				<path class="st14" d="M87.6,110.2c0.4,0.6-0.5,0.9-0.7,0.2C86.8,109.6,87.4,109.9,87.6,110.2z"/>
				<path class="st14" d="M87,108.8c0.3,0.5-0.2,1-0.6,0.4C85.9,108.6,86.5,108.1,87,108.8z"/>
				<path class="st14" d="M85.9,107.7c0.4,0.4,0,1-0.6,0.5C84.8,107.7,85.3,107.2,85.9,107.7z"/>
				<path class="st14" d="M84.4,106.9c0.5,0.2,0.3,1.2-0.4,0.9C83.3,107.5,83.6,106.6,84.4,106.9z"/>
				<path class="st14" d="M82.8,106.8c0.6,0.1,0.7,1.2-0.2,1.1C81.8,107.8,81.9,106.7,82.8,106.8z"/>
				<path class="st14" d="M81.1,107.2c0.6-0.3,1.2,0.7,0.4,1.1C80.6,108.7,80.1,107.6,81.1,107.2z"/>
				<path class="st14" d="M79.5,108.5c0.5-0.5,1.4,0.3,0.7,1C79.4,110.2,78.7,109.3,79.5,108.5z"/>
				<path class="st14" d="M78.3,110.3c0.4-0.7,1.6-0.2,1,0.8C78.7,112.1,77.6,111.4,78.3,110.3z"/>
				<path class="st14" d="M77.7,112.9c0-0.9,1.3-1.1,1.3,0.1C79.1,114.3,77.7,114.3,77.7,112.9z"/>
				<path class="st14" d="M78.4,115.2c-0.3-0.7,0.6-1.3,1-0.4C79.8,115.7,78.8,116.2,78.4,115.2z"/>
				<path class="st14" d="M79.4,117.2c-0.5-0.5,0.1-1.4,0.7-0.7C80.8,117.1,80.1,117.9,79.4,117.2z"/>
				<path class="st14" d="M81.1,118.4c-0.5-0.3-0.1-1.2,0.6-0.7C82.4,118.2,81.9,119,81.1,118.4z"/>
				<path class="st14" d="M83.1,119.5c-0.4-0.2-0.2-0.9,0.3-0.7C84,119,83.7,119.7,83.1,119.5z"/>
				<path class="st14" d="M84.9,120.2c-0.4-0.2-0.2-0.8,0.3-0.6C85.6,119.9,85.4,120.4,84.9,120.2z"/>
			</g>
			<path class="st13" d="M79.5,122.4c0.2,1.3,3.8,2.5,7.1,2.1c1.4,0.1,2.3,2.3-0.5,2.4C83.2,127,79.5,125.5,79.5,122.4z"/>
			<g>
				<path class="st14" d="M82.7,119.5c0.6,0.1,0.2,0.8-0.3,0.5C81.8,119.6,82.4,119.4,82.7,119.5z"/>
				<path class="st14" d="M81.6,118.6c0.4,0.1,0.4,0.7-0.2,0.6C80.9,119.1,81,118.5,81.6,118.6z"/>
				<path class="st14" d="M80.2,118.5c0.5,0,0.5,0.6-0.1,0.6C79.6,119.1,79.6,118.5,80.2,118.5z"/>
				<path class="st14" d="M79,119c0.4-0.2,0.8,0.5,0.3,0.8C78.7,120,78.3,119.2,79,119z"/>
				<path class="st14" d="M78,119.9c0.4-0.3,1.1,0.4,0.5,0.8C77.9,121.1,77.3,120.4,78,119.9z"/>
				<path class="st14" d="M77.3,121.3c0.2-0.5,1.1-0.2,0.8,0.5C77.8,122.5,77,122.2,77.3,121.3z"/>
				<path class="st14" d="M77.4,122.8c0.1-0.6,1-0.6,0.9,0.2C78.2,123.8,77.3,123.7,77.4,122.8z"/>
				<path class="st14" d="M77.8,124.3c-0.1-0.7,0.9-1,1.1,0C79,125.2,78,125.4,77.8,124.3z"/>
				<path class="st14" d="M78.9,126c-0.5-0.6,0.2-1.4,0.9-0.6C80.5,126.1,79.7,126.9,78.9,126z"/>
				<path class="st14" d="M80.5,127.2c-0.6-0.3-0.3-1.2,0.4-0.8C81.7,126.7,81.3,127.6,80.5,127.2z"/>
				<path class="st14" d="M82.3,128c-0.6,0-0.7-0.9,0.1-0.9C83.1,127.1,83.1,128,82.3,128z"/>
				<path class="st14" d="M83.9,128.2c-0.5,0-0.7-0.7,0-0.8C84.5,127.3,84.6,128.1,83.9,128.2z"/>
				<path class="st14" d="M85.6,127.9c-0.4,0.1-0.6-0.4-0.2-0.6C85.9,127.2,86.1,127.7,85.6,127.9z"/>
				<path class="st14" d="M87,127.8c-0.3,0.1-0.5-0.4-0.1-0.5C87.3,127.1,87.5,127.6,87,127.8z"/>
			</g>
			<g>
				<path class="st14" d="M94.2,125.2c0.4,0.5-0.4,0.9-0.8,0.2C93.1,124.8,94,124.9,94.2,125.2z"/>
				<path class="st14" d="M92.6,124.1c0.6,0.2,0.5,1-0.4,0.7C91.4,124.5,91.7,123.8,92.6,124.1z"/>
				<path class="st14" d="M90.7,123.8c0.7-0.1,1,1,0.1,1.1C89.8,125,89.6,123.9,90.7,123.8z"/>
				<path class="st14" d="M88.7,124.6c0.6-0.5,1.6,0.3,0.8,1C88.6,126.2,87.7,125.3,88.7,124.6z"/>
				<path class="st14" d="M87.3,126.4c0.3-0.7,1.7-0.5,1.3,0.5C88.2,128,86.8,127.6,87.3,126.4z"/>
				<path class="st14" d="M86.8,128.5c0-0.8,1.5-0.9,1.4,0.2C88.2,129.8,86.8,129.7,86.8,128.5z"/>
				<path class="st14" d="M87.2,130.8c-0.2-0.9,1.3-1.4,1.6-0.2C89.2,131.8,87.6,132.1,87.2,130.8z"/>
				<path class="st14" d="M88.7,133.2c-0.8-0.7,0.3-1.9,1.3-0.9C91.1,133.2,89.9,134.2,88.7,133.2z"/>
				<path class="st14" d="M91.5,134.7c-0.9-0.3-0.6-1.5,0.6-1.1C93.2,133.9,92.8,135.1,91.5,134.7z"/>
				<path class="st14" d="M94.2,134.4c-0.8,0-1.1-1.1,0.1-1.1C95.4,133.2,95.5,134.3,94.2,134.4z"/>
				<path class="st14" d="M96.7,133.2c-0.5,0.5-1.4,0-0.7-0.8C96.7,131.7,97.5,132.4,96.7,133.2z"/>
				<path class="st14" d="M98.4,131.5c-0.3,0.5-1.1,0.2-0.7-0.4C98.2,130.4,98.9,130.8,98.4,131.5z"/>
				<path class="st14" d="M99.5,129.8c-0.4,0.3-0.9-0.1-0.4-0.5C99.6,128.9,100.1,129.4,99.5,129.8z"/>
			</g>
			<path class="st16" d="M93.8,127.4c0.7,0.9,0.3,2.3-0.7,1C92.1,127.2,93.1,126.5,93.8,127.4z"/>
			<path class="st11" d="M91.9,101.7c2,0.3,0.5,3.6-1.2,3.6C88.6,105.3,89.3,101.3,91.9,101.7z"/>
			<path class="st11" d="M91.7,108.4c0.9-0.7,1.5,1.5,0.7,1.8C91.6,110.5,90.8,109.2,91.7,108.4z"/>
			<path class="st11" d="M93.4,98.8c1.1,0.4,0.2,1.9-0.9,1.6C91.6,100.2,92.3,98.4,93.4,98.8z"/>
			<path class="st11" d="M92.5,106c0.9-0.1,0.8,1.4,0,1.3C91.6,107.3,91.3,106.1,92.5,106z"/>
			<path class="st11" d="M107.3,126.9c2.1,0.9,0.8,3.8-0.9,2.2C104.7,127.6,104.9,125.8,107.3,126.9z"/>
			<path class="st11" d="M109.9,129.9c1.4,0,1,1.8-0.1,1.3C108.8,130.7,108.9,130,109.9,129.9z"/>
			<path class="st11" d="M105.2,124.8c0.8,0,1.1,1.3,0.1,1.3C104.4,126.1,104.6,124.8,105.2,124.8z"/>
			<path class="st11" d="M91.1,119.9c1.3-0.2,2.1,1.3,0.2,1.7C89.5,122,89.4,120.2,91.1,119.9z"/>
			<path class="st11" d="M88.6,119.4c0.7,0.1,0.8,1,0,1C87.8,120.3,87.5,119.2,88.6,119.4z"/>
			<path class="st11" d="M112.4,121.1c0.8-0.3,0.9,0.9,0.1,0.9C111.8,122,111.7,121.3,112.4,121.1z"/>
			<path class="st11" d="M114,114.9c1-0.1,1.4,1.4-0.2,1.7C112.3,116.9,112.7,115.1,114,114.9z"/>
			<path class="st11" d="M111.5,115.3c0.6,0,0.4,0.8,0,0.8C111.1,116.1,110.7,115.2,111.5,115.3z"/>
			<g>
				<path class="st18" d="M98.8,109.9c-2.1,1.2,0.1,3.8,1.5,2.6C101.5,111.4,100.3,109,98.8,109.9z"/>
				<path class="st19" d="M99.5,111.5c0-0.4,1-0.3,1,0C100.4,112.5,99.6,112.5,99.5,111.5z"/>
				<path class="st20" d="M98.8,111.4c-0.3,0-0.4,0.6,0,0.6C99.3,112,99.2,111.4,98.8,111.4z"/>
			</g>
			<g>
				<path class="st18" d="M107.9,108.4c2.3-0.5,2.6,2.8,0.8,3C107.2,111.5,107,108.8,107.9,108.4z"/>
				<path class="st19" d="M108.7,110.2c0-0.2,1.1-0.2,1,0.1C109.6,111.2,108.8,111.2,108.7,110.2z"/>
				<path class="st20" d="M107.9,109.8c0.3-0.2,0.5,0.3,0.2,0.5C107.8,110.6,107.7,110,107.9,109.8z"/>
			</g>
			<path class="st21" d="M102.5,112.8c1.3,0.2,3.3,0,4.2-0.7c-0.2,1.7-1.4,3.1-2.1,3.2C103,115.6,102.5,112.8,102.5,112.8z"/>
			<path class="st22" d="M102.9,113c-0.3,0.1,0.2,1.4,0.5,1.6c0.4,0.2,1.4-0.9,1.2-1.3C104.3,112.9,103.2,112.8,102.9,113z"/>
			<path class="st23" d="M123.9,118.4c-0.5,0-0.4,0.6,0,0.6C124.4,119,124.3,118.4,123.9,118.4z"/>
			<path class="st23" d="M124,120.5c-0.5,0-0.4,0.6,0,0.6C124.5,121.1,124.3,120.5,124,120.5z"/>
			<path class="st23" d="M123.1,122.9c-0.3-0.3-0.7,0.1-0.4,0.4C122.9,123.6,123.3,123.1,123.1,122.9z"/>
			<path class="st23" d="M123.2,116.7c-0.5,0-0.4,0.6,0,0.6S123.6,116.7,123.2,116.7z"/>
			<path class="st23" d="M122.1,115.5c-0.4,0-0.3,0.5,0,0.5C122.5,116,122.4,115.5,122.1,115.5z"/>
			<path class="st23" d="M120.6,114.7c-0.3,0-0.3,0.4,0,0.4C120.9,115.1,120.8,114.7,120.6,114.7z"/>
			<path class="st23" d="M119.1,114.6c-0.3,0-0.3,0.4,0,0.4C119.4,115,119.3,114.6,119.1,114.6z"/>
			<path class="st23" d="M117.5,114.9c-0.2,0.2,0,0.4,0.2,0.2C117.8,115,117.6,114.8,117.5,114.9z"/>
			<path class="st23" d="M116.4,116c-0.2,0.2,0,0.4,0.2,0.2C116.8,116.1,116.6,115.9,116.4,116z"/>
			<path class="st23" d="M116.1,117.6c0.1,0.3,0.3,0.1,0.2-0.1C116.2,117.3,116,117.5,116.1,117.6z"/>
			<path class="st23" d="M122.3,125.3c0,0-0.1-0.1-0.2-0.1c-0.1,0-0.1,0-0.2,0.1c0,0-0.1,0.1-0.1,0.1c0,0,0,0,0,0.1
				c0,0.1,0,0.1,0.1,0.2c0,0,0.1,0.1,0.2,0.1c0.1,0,0.1,0,0.2-0.1c0,0,0,0,0,0c0,0,0,0,0,0c0,0,0.1-0.1,0.1-0.2
				S122.3,125.3,122.3,125.3z"/>
			<path class="st23" d="M122.7,127.2c-0.3,0-0.3,0.5,0,0.5C122.9,127.7,123,127.2,122.7,127.2z"/>
			<path class="st23" d="M122.7,129.5c-0.4,0-0.4,0.6,0,0.6C123.1,130,123.1,129.5,122.7,129.5z"/>
			<path class="st23" d="M121.8,131.8c-0.2,0-0.3,0.1-0.3,0.3c0,0.2,0.1,0.3,0.3,0.3c0.2,0,0.3-0.1,0.3-0.3
				C122.1,132,122,131.8,121.8,131.8z"/>
			<path class="st23" d="M120.5,134.2c0-0.1,0-0.1-0.1-0.2c-0.1-0.1-0.2-0.1-0.3-0.1c-0.1,0-0.2,0-0.3,0.1c-0.1,0.1-0.1,0.2-0.1,0.3
				v0c0,0,0,0.1,0,0.1c0,0.1,0,0.1,0.1,0.2c0.1,0.1,0.2,0.1,0.3,0.1c0.1,0,0.2,0,0.3-0.1c0.1-0.1,0.1-0.2,0.1-0.3L120.5,134.2
				C120.5,134.3,120.5,134.3,120.5,134.2z"/>
			<path class="st23" d="M117.4,135.3c-0.2,0-0.3,0.1-0.3,0.3c0,0.2,0.1,0.3,0.3,0.3c0.2,0,0.3-0.1,0.3-0.3
				C117.7,135.5,117.5,135.3,117.4,135.3z"/>
			<path class="st23" d="M114.9,135.4c-0.4,0-0.4,0.6,0,0.6C115.2,136,115.2,135.4,114.9,135.4z"/>
			<path class="st23" d="M112.4,134.7c-0.3,0-0.4,0.5,0,0.5C112.7,135.2,112.8,134.7,112.4,134.7z"/>
			<path class="st23" d="M110.5,133.6c0,0-0.1-0.1-0.2-0.1c-0.1,0-0.1,0-0.2,0.1c0,0-0.1,0.1-0.1,0.2v0c0,0.1,0,0.1,0.1,0.2
				c0,0,0.1,0.1,0.2,0.1c0.1,0,0.1,0,0.2-0.1c0,0,0.1-0.1,0.1-0.2v0C110.6,133.7,110.5,133.6,110.5,133.6z"/>
			<path class="st23" d="M119.6,113.2c0,0-0.1,0-0.1-0.1c-0.1,0-0.2,0.1-0.2,0.1v0c0,0,0,0.1,0,0.1c0,0,0.1,0,0.1,0.1
				c0.1,0,0.2-0.1,0.2-0.1v0C119.6,113.2,119.6,113.2,119.6,113.2z"/>
			<path class="st23" d="M119.5,111.5c-0.3,0-0.3,0.4,0,0.4C119.7,112,119.7,111.5,119.5,111.5z"/>
			<path class="st23" d="M118.9,110c0,0-0.1-0.1-0.2-0.1h0c0,0,0,0-0.1,0c0,0-0.1,0-0.1,0.1c0,0-0.1,0.1-0.1,0.2s0,0.1,0.1,0.2
				c0,0,0.1,0.1,0.2,0.1h0c0,0,0,0,0.1,0c0,0,0.1,0,0.1-0.1c0,0,0.1-0.1,0.1-0.2C119,110.1,119,110,118.9,110z"/>
			<path class="st23" d="M117.9,108.6c0,0,0-0.1-0.1-0.1c0-0.1-0.1-0.1-0.2-0.1c-0.1,0-0.1,0-0.2,0.1c0,0-0.1,0.1-0.1,0.2v0
				c0,0,0,0,0,0.1c0,0,0,0.1,0.1,0.1c0,0.1,0.1,0.1,0.2,0.1c0.1,0,0.1,0,0.2-0.1C117.9,108.8,117.9,108.7,117.9,108.6L117.9,108.6
				L117.9,108.6z"/>
			<path class="st23" d="M116.3,107.7c-0.3,0-0.3,0.5,0,0.5C116.6,108.2,116.6,107.7,116.3,107.7z"/>
			<path class="st23" d="M114.8,107.5c-0.3,0-0.3,0.4,0,0.4C115.1,107.9,115.1,107.5,114.8,107.5z"/>
			<path class="st23" d="M113.7,107.8c0,0-0.1-0.1-0.1-0.1h0c-0.1,0-0.1,0-0.1,0c0,0-0.1,0.1-0.1,0.1c0,0.1,0,0.1,0,0.1
				c0,0,0.1,0.1,0.1,0.1h0c0.1,0,0.1,0,0.1,0c0,0,0.1-0.1,0.1-0.1C113.7,107.9,113.7,107.8,113.7,107.8z"/>
			<path class="st23" d="M112.5,108.5c-0.2,0-0.3,0.4,0,0.4C112.7,108.8,112.7,108.5,112.5,108.5z"/>
			<path class="st23" d="M111.9,109.5c-0.2,0-0.3,0.4,0,0.4C112.1,109.8,112.1,109.5,111.9,109.5z"/>
			<path class="st23" d="M111.7,110.8c-0.2,0-0.2,0.3,0,0.3C111.9,111.1,111.9,110.8,111.7,110.8z"/>
			<path class="st23" d="M112.3,112.2c-0.2,0-0.2,0.3,0,0.3C112.5,112.5,112.5,112.2,112.3,112.2z"/>
			<path class="st23" d="M108.5,132.1c-0.2,0-0.3,0.4,0,0.4C108.7,132.5,108.7,132.1,108.5,132.1z"/>
			<path class="st23" d="M99.5,129.4c0,0-0.1-0.1-0.1-0.1h0c0,0-0.1,0-0.1,0c0,0-0.1,0.1-0.1,0.1c0,0,0,0.1,0,0.1
				c0,0,0.1,0.1,0.1,0.1h0c0,0,0.1,0,0.1,0c0,0,0.1-0.1,0.1-0.1S99.5,129.4,99.5,129.4z"/>
			<path class="st23" d="M98.2,131.1c-0.2,0-0.3,0.4,0,0.4C98.4,131.5,98.4,131.1,98.2,131.1z"/>
			<path class="st23" d="M96.5,132.6c-0.3,0-0.4,0.5,0,0.5C96.8,133.1,96.8,132.6,96.5,132.6z"/>
			<path class="st23" d="M94.3,133.7c-0.2,0-0.3,0.1-0.3,0.3c0,0.2,0.1,0.3,0.3,0.3c0.2,0,0.3-0.1,0.3-0.3
				C94.6,133.8,94.5,133.7,94.3,133.7z"/>
			<path class="st23" d="M91.8,134c-0.4,0-0.4,0.6,0,0.6C92.2,134.6,92.2,134,91.8,134z"/>
			<path class="st23" d="M89.7,132.7c0-0.1,0-0.1-0.1-0.2c-0.1-0.1-0.1-0.1-0.2-0.1c-0.1,0-0.2,0-0.2,0.1c-0.1,0.1-0.1,0.1-0.1,0.2
				v0c0,0,0,0.1,0,0.1c0,0.1,0,0.1,0.1,0.2c0.1,0.1,0.1,0.1,0.2,0.1c0.1,0,0.2,0,0.2-0.1c0.1-0.1,0.1-0.1,0.1-0.2L89.7,132.7
				C89.7,132.8,89.7,132.8,89.7,132.7z"/>
			<path class="st23" d="M87.9,130.5c-0.2,0-0.4,0.1-0.4,0.3c0,0.2,0.1,0.4,0.3,0.4c0.2,0,0.4-0.1,0.4-0.3
				C88.2,130.7,88.1,130.5,87.9,130.5z"/>
			<path class="st23" d="M87.4,128.4c-0.2,0-0.3,0.1-0.3,0.3c0,0.2,0.1,0.3,0.3,0.3c0.2,0,0.3-0.1,0.3-0.3
				C87.7,128.5,87.6,128.4,87.4,128.4z"/>
			<path class="st23" d="M87.7,126.4c-0.2,0-0.3,0.1-0.3,0.3c0,0.2,0.1,0.3,0.3,0.3c0.2,0,0.3-0.1,0.3-0.3
				C88,126.6,87.9,126.4,87.7,126.4z"/>
			<path class="st23" d="M89.1,124.8c-0.1-0.1-0.1-0.1-0.2-0.1h0c0,0-0.1,0-0.1,0c-0.1,0-0.1,0-0.1,0.1c-0.1,0.1-0.1,0.1-0.1,0.2
				c0,0.1,0,0.2,0.1,0.2c0.1,0.1,0.1,0.1,0.2,0.1h0c0,0,0.1,0,0.1,0c0.1,0,0.1,0,0.1-0.1c0.1-0.1,0.1-0.1,0.1-0.2
				S89.2,124.9,89.1,124.8z"/>
			<path class="st23" d="M90.6,123.9c-0.3,0-0.4,0.5,0,0.5C91,124.5,91,123.9,90.6,123.9z"/>
			<path class="st23" d="M92.4,124.1c-0.3,0-0.3,0.5,0,0.5C92.7,124.5,92.7,124.1,92.4,124.1z"/>
			<path class="st23" d="M94,125.1c-0.2,0-0.3,0.4,0,0.4C94.2,125.5,94.2,125.1,94,125.1z"/>
			<path class="st23" d="M87,127.5c-0.2,0-0.2,0.2,0,0.2C87.1,127.7,87.1,127.5,87,127.5z"/>
			<path class="st23" d="M85.5,127.5c-0.2,0-0.2,0.3,0,0.3C85.7,127.9,85.8,127.5,85.5,127.5z"/>
			<path class="st23" d="M83.9,127.7c-0.3,0-0.3,0.4,0,0.4C84.1,128.1,84.2,127.7,83.9,127.7z"/>
			<path class="st23" d="M82.3,127.4c-0.3,0-0.3,0.4,0,0.4C82.6,127.8,82.6,127.4,82.3,127.4z"/>
			<path class="st23" d="M80.6,126.7c-0.3,0-0.3,0.4,0,0.4C80.9,127.2,80.9,126.7,80.6,126.7z"/>
			<path class="st23" d="M79.3,125.6c-0.4,0-0.4,0.5,0,0.5C79.6,126.1,79.6,125.6,79.3,125.6z"/>
			<path class="st23" d="M78.3,124.2c0-0.1-0.1-0.1-0.2-0.1h0c0,0,0,0-0.1,0c0,0-0.1,0-0.1,0.1c-0.1,0-0.1,0.1-0.1,0.2
				c0,0.1,0,0.1,0.1,0.2c0,0.1,0.1,0.1,0.2,0.1h0c0,0,0,0,0.1,0c0,0,0.1,0,0.1-0.1c0.1,0,0.1-0.1,0.1-0.2
				C78.4,124.4,78.4,124.3,78.3,124.2z"/>
			<path class="st23" d="M77.7,122.7c-0.3,0-0.3,0.5,0,0.5C78,123.2,78,122.7,77.7,122.7z"/>
			<path class="st23" d="M77.6,121.4c-0.3,0-0.3,0.5,0,0.5C77.9,121.8,77.9,121.4,77.6,121.4z"/>
			<path class="st23" d="M78.1,120c-0.3,0-0.3,0.4,0,0.4C78.3,120.5,78.3,120,78.1,120z"/>
			<path class="st23" d="M79.1,119.1c-0.2,0-0.3,0.4,0,0.4C79.3,119.5,79.3,119.1,79.1,119.1z"/>
			<path class="st23" d="M80.2,118.6c-0.2,0-0.2,0.3,0,0.3C80.4,118.9,80.4,118.6,80.2,118.6z"/>
			<path class="st23" d="M81.5,118.7L81.5,118.7c-0.1,0-0.1,0-0.1,0c0,0,0,0.1,0,0.1c0,0.1,0.1,0.1,0.1,0.1h0c0,0,0.1,0,0.1,0
				c0,0,0-0.1,0-0.1C81.7,118.7,81.6,118.7,81.5,118.7z"/>
			<path class="st23" d="M82.5,119.5c-0.2,0-0.2,0.2,0,0.2C82.7,119.8,82.7,119.5,82.5,119.5z"/>
			<path class="st23" d="M87.5,110.2c-0.2,0-0.3,0.4,0,0.4C87.7,110.6,87.7,110.2,87.5,110.2z"/>
			<path class="st23" d="M87,108.8c0,0-0.1-0.1-0.1-0.1h0c-0.1,0-0.1,0-0.1,0c0,0-0.1,0.1-0.1,0.1c0,0.1,0,0.1,0,0.1
				c0,0,0.1,0.1,0.1,0.1h0c0.1,0,0.1,0,0.1,0c0,0,0.1-0.1,0.1-0.1C87,108.9,87,108.8,87,108.8z"/>
			<path class="st23" d="M85.6,107.6c-0.3,0-0.3,0.4,0,0.4C85.9,108.1,85.9,107.6,85.6,107.6z"/>
			<path class="st23" d="M84.4,107.1c0,0,0-0.1-0.1-0.1c0,0-0.1-0.1-0.2-0.1s-0.1,0-0.2,0.1c0,0-0.1,0.1-0.1,0.2v0c0,0,0,0,0,0.1
				c0,0,0,0.1,0.1,0.1c0,0,0.1,0.1,0.2,0.1c0.1,0,0.1,0,0.2-0.1C84.4,107.4,84.4,107.3,84.4,107.1L84.4,107.1
				C84.4,107.2,84.4,107.2,84.4,107.1z"/>
			<path class="st23" d="M82.6,107c-0.3,0-0.3,0.5,0,0.5C82.9,107.5,83,107,82.6,107z"/>
			<path class="st23" d="M81.4,107.5c0,0,0-0.1-0.1-0.1c0-0.1-0.1-0.1-0.2-0.1c-0.1,0-0.1,0-0.2,0.1c-0.1,0-0.1,0.1-0.1,0.2v0l0,0.1
				c0,0,0,0.1,0.1,0.1c0,0.1,0.1,0.1,0.2,0.1c0.1,0,0.1,0,0.2-0.1c0.1,0,0.1-0.1,0.1-0.2L81.4,107.5L81.4,107.5z"/>
			<path class="st23" d="M79.8,108.6c-0.4,0-0.4,0.5,0,0.5C80.1,109.2,80.1,108.6,79.8,108.6z"/>
			<path class="st23" d="M78.7,110.5c-0.4,0-0.4,0.5,0,0.5C79,111,79,110.5,78.7,110.5z"/>
			<path class="st23" d="M78.3,112.8c-0.4,0-0.4,0.6,0,0.6C78.6,113.4,78.7,112.8,78.3,112.8z"/>
			<path class="st23" d="M78.9,114.7c-0.4,0-0.4,0.6,0,0.6C79.2,115.3,79.2,114.7,78.9,114.7z"/>
			<path class="st23" d="M79.8,116.7c-0.3,0-0.4,0.5,0,0.5C80.1,117.2,80.1,116.7,79.8,116.7z"/>
			<path class="st23" d="M81.5,118c-0.3,0-0.3,0.5,0,0.5C81.8,118.5,81.8,118,81.5,118z"/>
			<path class="st23" d="M83.3,119c-0.3,0-0.3,0.4,0,0.4C83.5,119.4,83.6,119,83.3,119z"/>
			<path class="st23" d="M85.2,119.8c-0.2,0-0.3,0.4,0,0.4C85.4,120.2,85.4,119.8,85.2,119.8z"/>
		</g>
	</g>
</g>
</svg>
