<?xml version="1.0" encoding="utf-8"?>
<!-- Generator: Adobe Illustrator 24.3.0, SVG Export Plug-In . SVG Version: 6.00 Build 0)  -->
<svg version="1.1" id="Capa_1" xmlns:v="https://vecta.io/nano"
	 xmlns="http://www.w3.org/2000/svg" xmlns:xlink="http://www.w3.org/1999/xlink" x="0px" y="0px" viewBox="0 0 193 204.5"
	 style="enable-background:new 0 0 193 204.5;" xml:space="preserve">
<style type="text/css">
	.st0{clip-path:url(#SVGID_2_);}
	.st1{opacity:0.1;}
	.st2{fill-rule:evenodd;clip-rule:evenodd;fill:#606063;}
	.st3{fill:#BEBEBE;}
	.st4{fill:#FAF9FA;}
	.st5{fill-rule:evenodd;clip-rule:evenodd;fill:#633001;}
	.st6{fill:#FEDC90;}
	.st7{fill:#D1884F;}
	.st8{fill-rule:evenodd;clip-rule:evenodd;fill:url(#SVGID_3_);}
	.st9{fill:#9E7200;}
	.st10{fill:#F0B90B;}
	.st11{fill:#E23040;}
	.st12{fill:#FF7881;}
	.st13{fill:#FC5161;}
	.st14{fill:#FFBFBF;}
	.st15{fill:#FF9B2E;}
	.st16{fill:#F9C55D;}
	.st17{fill:#FF7176;}
	.st18{fill:#0A101B;}
	.st19{fill:#2A6589;}
	.st20{fill:#FFDBCC;}
	.st21{fill:#7A0000;}
	.st22{fill:#3F0000;}
	.st23{fill:#FF8F8F;}
	.st24{fill:#DB3A4D;}
	.st25{opacity:0.49;}
	.st26{opacity:0.54;fill:#FFFFFF;}
	.st27{opacity:0.1;fill:#FFBFBF;}
	.st28{opacity:0.1;fill:#EFB9B9;}
	.st29{fill-rule:evenodd;clip-rule:evenodd;fill:#FC5161;}
</style>
<path class="st27" d="M195.1,73.7c2.1,2.1,2.3,5.3,0.7,7.7c-30.5,43.5-68.1,81.5-111.4,112.4l-3.4,2.4c-2.5,1.8-5.9,1.5-8.1-0.7
	l-15.4-15.4c9.1-9.4,9-24.4-0.3-33.7s-24.3-9.4-33.7-0.3L9.4,132c-2.4-2.4-2.4-6.3,0-8.7c0.2-0.2,0.5-0.5,0.8-0.7l3.4-2.4
	C55.8,90.1,92.6,53,122.3,10.5c2.1-3,6.3-3.3,8.9-0.8l14.4,14.4c-9,9.4-8.9,24.4,0.3,33.6s24.2,9.4,33.6,0.3L195.1,73.7L195.1,73.7z
	"/>
<path class="st28" d="M202,77.9l-55,69.6l-71.1,53.8l-13.7-13.8l-4.9-6l4.9-7.1l1.7-7.1l-1-7.6l-2.9-7.1l-4.8-5.7l-5.7-3.8l-6.2-1.9
	h-7.6l-8.1,2.9l-4.8,4.3l-11.4-13.8l18.6-2.8c57.6-8.6,112.1-31.9,158.1-67.6L202,77.9L202,77.9z"/>
<g class="st1">
	<path class="st29" d="M50.6,180.8c0-2,0.8-4,2.2-5.4l0,0c6.4-6.4,6.4-16.8,0-23.2s-16.8-6.4-23.2,0l0,0c-3,3-7.8,3-10.8,0
		c0,0,0,0,0,0L4,137.4c-6-6-5.2-16,1.7-20.9l3.4-2.4l4.4,6.2l-3.4,2.4c-2.8,2-3.4,5.8-1.4,8.6c0.2,0.3,0.4,0.5,0.7,0.8l14.8,14.8
		l0.1-0.1c9.4-9.3,24.6-9.3,33.9,0c9.4,9.4,9.4,24.5,0,33.9l0,0l0,0l14.7,14.7c2.2,2.2,5.6,2.5,8.1,0.7l3.4-2.4
		c43.3-30.8,80.9-68.9,111.4-112.4c1.7-2.4,1.4-5.6-0.7-7.7l-15.4-15.4l-0.2,0.2l-0.2,0.2c-9.4,9.2-24.5,9.2-33.8-0.2
		s-9.4-24.4-0.2-33.8l0.2-0.2l0.2-0.2L131.2,9.7c-2.3-2.3-6-2.3-8.3,0c-0.2,0.2-0.5,0.5-0.6,0.8C92.6,53,55.8,90.1,13.6,120.2
		L9.2,114C50.7,84.4,86.8,47.9,116.1,6.2c4.8-6.9,14.6-7.7,20.5-1.8l14.5,14.5c3,3,3,7.8,0,10.8c0,0,0,0-0.1,0.1l-0.1,0.1
		c-6.4,6.4-6.4,16.8,0,23.2s16.8,6.4,23.2,0l0.1-0.1c2.9-3,7.8-3,10.8-0.1c0,0,0,0,0.1,0.1l15.4,15.4c4.7,4.7,5.3,12,1.5,17.4
		c-31,44.2-69.2,82.9-113.2,114.2l-3.4,2.4c-5.5,3.9-13.1,3.3-17.9-1.5l-14.7-14.7C51.4,184.7,50.6,182.8,50.6,180.8L50.6,180.8z"/>
	<path class="st29" d="M102.3,36.3l3.4,3.4c1.5,1.5,1.4,3.9-0.1,5.4c-1.5,1.4-3.8,1.4-5.3,0l-3.4-3.4c-1.5-1.5-1.4-3.9,0.1-5.4
		C98.5,34.9,100.8,34.9,102.3,36.3z M116.4,50.5l3.4,3.4c1.5,1.5,1.4,3.9-0.1,5.4c-1.5,1.4-3.8,1.4-5.3,0l-3.4-3.4
		c-1.5-1.5-1.4-3.9,0.1-5.4C112.6,49.1,115,49.1,116.4,50.5L116.4,50.5z M133.9,73.4c-1.5,1.5-3.9,1.5-5.4,0l-4-4
		c-1.5-1.5-1.4-3.9,0.1-5.4c1.5-1.4,3.8-1.4,5.3,0l4,4C135.4,69.5,135.4,71.9,133.9,73.4L133.9,73.4z M148.1,87.5
		c-1.5,1.5-3.9,1.5-5.4,0l-4-4c-1.5-1.5-1.4-3.9,0.1-5.4c1.5-1.4,3.8-1.4,5.3,0l4,4C149.5,83.6,149.5,86,148.1,87.5z M158.2,92.2
		l3.4,3.4c1.5,1.5,1.4,3.9-0.1,5.4c-1.5,1.4-3.8,1.4-5.3,0l-3.4-3.4c-1.5-1.5-1.4-3.9,0.1-5.4C154.4,90.8,156.7,90.8,158.2,92.2z
		 M172.3,106.3l3.4,3.4c1.5,1.5,1.4,3.9-0.1,5.4c-1.5,1.4-3.8,1.4-5.3,0l-3.4-3.4c-1.5-1.5-1.4-3.9,0.1-5.4
		C168.5,104.9,170.8,104.9,172.3,106.3z"/>
</g>
<g class="st1">
	<g>
		<g>
			<g>
				<g>
					<g>
						<path class="st14" d="M131,115.7c0,0.4,0,0.7,0,1.1c-0.5,14-10.3,25.6-23.4,28.8c-2.4,0.6-4.9,0.9-7.4,0.9
							c-2.4,0-4.7-0.3-6.9-0.8c-2.3-0.5-4.5-1.3-6.5-2.3c-5.2-2.5-9.6-6.5-12.7-11.4c-0.9-1.5-1.7-3-2.4-4.6
							c-1.5-3.6-2.4-7.6-2.4-11.8c0-1,0-1.9,0.1-2.9c1.2-12.6,9.9-22.9,21.6-26.6c2.9-0.9,5.9-1.4,9.1-1.4c2,0,3.9,0.2,5.7,0.5
							c1.7,0.3,3.4,0.8,5,1.4c5.5,2,10.2,5.6,13.7,10.1c1.4,1.8,2.6,3.8,3.6,5.9C130,106.8,131,111.1,131,115.7z"/>
					</g>
					<g>
						<path class="st13" d="M100.1,80.9c-19.2,0-34.8,15.6-34.8,34.8c0,19.2,15.6,34.8,34.8,34.8s34.8-15.6,34.8-34.8
							C135,96.5,119.3,80.9,100.1,80.9z M100.1,146.6c-17,0-30.8-13.8-30.8-30.8s13.8-30.9,30.8-30.9S131,98.7,131,115.7
							S117.1,146.6,100.1,146.6z"/>
					</g>
				</g>
				<g class="st25">
					<path class="st14" d="M124.5,96.9l-37.8,46.6c-5.2-2.5-9.6-6.5-12.7-11.4l36.8-45.3C116.3,88.8,121,92.4,124.5,96.9z"/>
				</g>
				<g class="st25">
					<path class="st14" d="M105.8,85.4l-34.2,42.1c-1.5-3.6-2.4-7.6-2.4-11.8c0-1,0-1.9,0.1-2.9L91,86.2c2.9-0.9,5.9-1.4,9.1-1.4
						C102.1,84.9,104,85,105.8,85.4z"/>
				</g>
				<g class="st25">
					<path class="st14" d="M131,115.7c0,0.4,0,0.7,0,1.1l-23.4,28.8c-2.4,0.6-4.9,0.9-7.4,0.9c-2.4,0-4.7-0.3-6.9-0.8l34.9-43
						C130,106.8,131,111.1,131,115.7z"/>
				</g>
			</g>
		</g>
	</g>
	<g>
		<path class="st11" d="M108.3,113.5c0.3-0.8,0.5-1.5,0.7-2.4c1.6-6.4,0.1-14.2-8.1-16.3c-11.7-3-18.3,7.6-14.6,15.9
			c1.8,4.1,3.8,2.6,4.7,4.8"/>
		<path class="st11" d="M90.9,114.7c1.4,3-6.4,4.1-9.7-0.2c-3.2-4.4,0.8-7.7,2.1-5.3c1.8,3.2-0.8,2.3-0.8,3.2c0,0.9,4.4,0.6,3.9-2.3
			c-0.6-2.9-6-6.9-9.1-1.5c-3.1,5.4,4.4,10.6,8,11.3c3.6,0.7,2.1,3.9-3.1,3.3l0.5,3.8c4.3,0,8-2.8,10.1,0.5c2.1,3.2,0.1,2.2-2,2.2
			c-2.1,0,0.2,4.7,3.5,3.6c3.3-1.1,4.6-5.3,8.9-3.6c5.4,3.8,11.1,8.3,16.2,3.2c3.3-3.3-1.1-5.4-3-3.1c-1.9,2.2-5.8-1-4.3-2.8
			c1.6-1.8,5.5,0.2,8.9-3.1c3.4-3.4,0-7-0.6-6.4c-0.6,0.6-0.3,4.5-4.6,3c-3.6-1.3-3.5-3.3-2.3-3.7c2.4-0.8,5.7-2.7,4-7.1
			c-1.8-4.4-6.8-2.9-7.2-0.4c-0.5,3,3.2,4.3,3.9,2.9c0.2-0.4-0.2-0.5-1.1-0.9c-0.7-0.3-1.5-2,0.5-2c2,0,3.3,5.9-2.9,4.5
			c-2.4-0.5-1.8-1.2-1.6-2.2"/>
		<path class="st12" d="M116.4,108.2c0.5,0.6-0.3,0.6-1.2,0.1c-1.7-0.7-3.2-0.3-3.6,0.7c-0.6,1.6,1.3,2.8,1.2,3.1
			c-0.2,0.3-1.9,0.4-2.6-2C109.5,107.7,114,105,116.4,108.2z"/>
		<path class="st12" d="M85.4,108.2c1.3,1.2,1.7,4.5-1.9,4.2c-0.3-0.3,1.9-1.5,1-3.5C83.5,106.8,84.9,107.5,85.4,108.2z"/>
		<path class="st13" d="M92.8,112.8c1.1,1.4,0.6,4.6-4.1,4.8c-4.7,0.2-8.4-2.1-9-5.4c-0.6-3.3,2.4-4.8,3.8-3.5
			c-1.8-2.5-6.2-1-5.8,4.3c0.4,5.3,10.1,9.9,17.2,5.5C102,114.2,92.8,112.8,92.8,112.8z"/>
		<g>
			<path class="st14" d="M110.5,111.2c0,0.5,0.8,0.4,0.5-0.2C110.8,110.5,110.5,110.9,110.5,111.2z"/>
			<path class="st14" d="M109.9,109.9c0,0.4,0.6,0.5,0.6,0C110.5,109.3,109.9,109.3,109.9,109.9z"/>
			<path class="st14" d="M110,108.6c-0.1,0.4,0.5,0.6,0.6,0.1C110.7,108.1,110.1,108,110,108.6z"/>
			<path class="st14" d="M110.6,107.5c-0.3,0.4,0.3,0.9,0.7,0.4C111.7,107.4,111,106.9,110.6,107.5z"/>
			<path class="st14" d="M111.6,106.7c-0.4,0.3,0.1,1.1,0.7,0.6C112.8,106.8,112.2,106.2,111.6,106.7z"/>
			<path class="st14" d="M113.1,106.3c-0.6,0.1-0.5,1,0.3,0.9C114.2,107,114,106.2,113.1,106.3z"/>
			<path class="st14" d="M114.6,106.6c-0.6-0.1-0.8,0.8,0,0.9C115.5,107.6,115.5,106.7,114.6,106.6z"/>
			<path class="st14" d="M116.2,107.2c-0.7-0.3-1.1,0.6-0.3,1C116.8,108.6,117.2,107.6,116.2,107.2z"/>
			<path class="st14" d="M117.5,108.8c-0.4-0.6-1.4-0.1-0.8,0.7C117.3,110.3,118.2,109.7,117.5,108.8z"/>
			<path class="st14" d="M118.2,110.6c-0.1-0.6-1.1-0.5-0.9,0.2C117.5,111.6,118.4,111.5,118.2,110.6z"/>
			<path class="st14" d="M118.2,112.3c0.1-0.5-0.7-0.8-0.9-0.1C117.2,112.8,118,113,118.2,112.3z"/>
			<path class="st14" d="M118,113.8c0.1-0.4-0.5-0.8-0.7-0.2C117.1,114.2,117.8,114.5,118,113.8z"/>
		</g>
		<path class="st11" d="M122.1,122.1c3.2-6.4-3.8-10.1-6.7-7.8c-2.9,2.3,0.8,5.2,1.2,4.2c0.4-1-2.4-1.5,0.1-2.9
			c2.2-1.2,3.8,1.6,2.7,4.1"/>
		<path class="st11" d="M116.5,115.8c-1,0.7-0.8,1.9,0.3,1.8c0.7-0.1,0.2-1,0.5-1.1c0.7-0.3,1.7,2.2-0.2,2.6
			c-1.9,0.5-3.5-1.6-2.7-3.3"/>
		<path class="st12" d="M118,117.6c0.2-1.1-0.7-1.5-0.8-0.6c-0.1,0.8-1.3,1.2-1.8-0.1c-0.5-1.3,1.7-3.1,4.7-1.8
			c1.3,0.5,0.7-0.3,0.1-0.7c-2.4-1.5-6-0.4-6,2.3C114.1,119.3,117.6,119.4,118,117.6z"/>
		<path class="st15" d="M110,123c-1.2,1.7,0.4,6.7,4,7.4c-1.9-0.5-2.3-3.3-1.3-4c1-0.7,7.8,1.2,9.9-5.9
			C119.4,127.1,111.2,121.3,110,123z"/>
		<path class="st16" d="M111,123.6c-1.4,0.6-0.4,3.2,0.3,4.5c0.7,1.3,0.5,0.5,0.4-0.7c-0.1-1.2,0.4-1.4,3-1.6
			c2.6-0.2,2.7-1.3,0.6-1.4C113.3,124.4,112.5,123,111,123.6z"/>
		<path class="st13" d="M99.3,124c1.7-1.6,3.8,2.1,8.5,5.9c5.2,4.1,10.8,3.4,11.2-0.2c-3.7,4.4-11.2-0.7-9.6-7.9
			c1.9-1,6.5,3.2,10.5-0.1c2.3-1.9,1.8-5.7-1.2-6.2c1.1,0.3,1.9,2.4,1.1,4.2c-0.8,1.8-3.4,2-6.4-0.3c-1.3-1-1.5-2.6,0.5-3.6
			c2.5-1.3,3.2-4.4,1.1-5.8c1.8,3.9-2.9,5.1-5.5,3.9c-2.6-1.1-1.4-2.1-0.8-4.4c0.4-1.4,0.5-2.6-1.7-5.1c-4.6-5.2-15.7-5.3-16.5,1.3
			c-0.6,5.8,6.6,6.7,2.5,12.8c-2.7,4-9.3,7-14.4,3.8c2.6,4.9,7.7,4.2,13.1,1.9c2.1-0.9,3.9,4.5,1.6,7
			C96.9,129.7,97.8,125.4,99.3,124z"/>
		<path class="st11" d="M114.4,121c-2.6-0.9-3.6,1.2-1.6,1.8C114.9,123.4,116.3,121.6,114.4,121z"/>
		<g>
			<path class="st14" d="M114.4,116.8c0.3,0.5,0.9,0.1,0.4-0.5C114.5,115.8,114.3,116.4,114.4,116.8z"/>
			<path class="st14" d="M114.7,115c-0.3,0.5,0.3,0.9,0.7,0.2C115.7,114.5,115.1,114.2,114.7,115z"/>
			<path class="st14" d="M115.8,113.8c-0.5,0.3-0.2,1,0.5,0.5C117,113.9,116.6,113.3,115.8,113.8z"/>
			<path class="st14" d="M117.4,113.4c-0.6,0.1-0.6,1.1,0.2,0.9C118.4,114.2,118.3,113.2,117.4,113.4z"/>
			<path class="st14" d="M119.1,113.5c-0.7,0-1,1.1-0.1,1.1C119.9,114.6,120.1,113.5,119.1,113.5z"/>
			<path class="st14" d="M120.8,114.2c-0.6-0.4-1.4,0.5-0.7,1C120.9,115.8,121.7,114.8,120.8,114.2z"/>
			<path class="st14" d="M122,115.5c-0.4-0.6-1.5,0.1-0.9,0.9C121.7,117.1,122.7,116.3,122,115.5z"/>
			<path class="st14" d="M122.9,117.3c-0.3-0.8-1.6-0.3-1.3,0.7C122,119,123.3,118.4,122.9,117.3z"/>
			<path class="st14" d="M123.1,119.8c0.1-0.9-1.1-1.2-1.4,0C121.4,121,122.9,121.1,123.1,119.8z"/>
			<path class="st14" d="M121.8,122.2c0.5-0.6-0.3-1.3-1-0.5C120.2,122.6,121.1,123.2,121.8,122.2z"/>
			<path class="st14" d="M119.7,123.4c0.6-0.4,0.2-1.3-0.6-0.8C118.2,123.1,118.7,124,119.7,123.4z"/>
			<path class="st14" d="M117.3,123.8c0.6,0.1,1-0.7,0.1-0.9C116.6,122.8,116.4,123.6,117.3,123.8z"/>
			<path class="st14" d="M115.2,123.5c0.5,0.2,0.9-0.4,0.3-0.6C114.9,122.6,114.5,123.2,115.2,123.5z"/>
			<path class="st14" d="M113.6,122.8c0.4,0,0.6-0.6,0-0.6C113.1,122.2,113,122.8,113.6,122.8z"/>
		</g>
		<path class="st11" d="M116.3,129.7c2.4-2.4,1.4-6.3-1.5-5.6c-2,0.4-0.2,2.1-1.1,3c-0.9,0.9-3.8-3.9,0.5-5.2
			c4.2-1.3,9.6,2.6,5.9,9.9"/>
		<path class="st13" d="M117.3,130.9c1.7-0.9,2.4-4.1,1.3-6.6c-1.1-2.5-4.4-1.7-5.1-0.5c-0.7,1.2-0.4,2.2-0.9,2.2c-0.5,0-1-3,1.7-4
			c2.8-1,6.5,0.9,6.6,4.4c0.1,3.5-2.7,7.5-7.6,6.2"/>
		<path class="st13" d="M107.8,113.7c1.8-3,3.1-11.5-1.8-15.8c-5.1-4.6-13.1-3-16.4,1.9c-6,9,4.8,11.8,5.3,16.8"/>
		<path class="st17" d="M100.8,96c8.3,0.2,12.6,14.7,2,16.7C91.4,114.8,86.5,95.6,100.8,96z"/>
		<path class="st15" d="M76.9,112.9c1.8,2.9,5.6,6.4,9.4,6.7c3.8,0.3,2.3,3.2-2.4,3.7C84.5,121.8,77.5,119.9,76.9,112.9z"/>
		<path class="st16" d="M78.9,116.8c1.5,1.4,4.2,2.9,5.9,3.4c1.6,0.5,0.5,2.2-1.2,1.6c-1.7-0.6-3.8-2.6-4.9-4
			C77.8,116.3,78.2,116.1,78.9,116.8z"/>
		<path class="st15" d="M91,125c1.9,0.6,3.1,3.7,1.4,4.6c0.1-1.1-0.9-3.9-4.4-3.2C90,125,91,125,91,125z"/>
		<path class="st15" d="M115.6,135c-3.6-0.2-6.5-2-10.3-5.7c-3.7-3.7-5.6-4.7-8-0.8c-2.4,3.9-5.2,5.5-9,4c2.5,2.5,6.3,3.2,10.6-1.4
			c2.3-2.4,4.5-0.7,7.2,1.1C108.8,134.1,113.6,135.8,115.6,135z"/>
		<path class="st11" d="M93.2,128.3c0,0.7-0.9,1.9-2.9,0.8c-2.1-1.1-0.7-4.2,1.5-3.6c1.1,0.3,1.5,0.1,1-0.7
			c-1.3-1.9-5.1-2.6-6.8,1.9c-1.9,5.2,6.2,10,9.9,3.6"/>
		<path class="st13" d="M87.8,131.7c-4.4-3.6,0.3-11.2,4.5-7.1c-2.7-1.1-5.7,1.7-3.9,4.5c1.1,1.7,6.2,2.4,6.1-1.5
			c1.3-1.9,2.9-2.5,2.6-0.2C96.5,131,91.8,135,87.8,131.7z"/>
		<path class="st11" d="M82.1,123.2c-5.3-0.7-4.1-3.2-3.1-3.5c1.7-0.6,1.1,1.7,2.3,1.1c1.6-1-1.6-5.3-4.3-1.7
			c-2.2,2.9,1.3,8.5,6.4,7.9"/>
		<path class="st16" d="M100.4,127.6c2.5-0.5,4.8,2.6,5.8,3.5c1,0.9,0.8,1.3-0.8,0.3c-1.6-0.9-3-2.2-4.9-1.7
			c-1.9,0.5-3.4,3.3-4.4,3.2C95.2,132.9,97.8,128.1,100.4,127.6z"/>
		<path class="st12" d="M80.8,119.2c-1.3-1.4-3-0.2-3.4,0.9c-0.6,1.6,0.1,2.9-0.6,2.8c-0.7-0.1-0.9-3.2,0.5-4.3
			C78.7,117.6,80.8,117.5,80.8,119.2z"/>
		<g>
			<path class="st14" d="M113.7,121.5c-0.9,0.2-0.5,1.2,0.4,0.8C114.9,121.9,114.1,121.4,113.7,121.5z"/>
			<path class="st14" d="M112.2,123.2c-0.3,0.6,0.4,0.9,0.6,0.2C113.1,122.7,112.3,122.9,112.2,123.2z"/>
			<path class="st14" d="M115.6,121c-0.7,0-0.8,0.9,0.1,0.9C116.7,122,116.7,121,115.6,121z"/>
			<path class="st14" d="M117.5,121.4c-0.7-0.1-1,0.8-0.1,0.9C118.4,122.5,118.6,121.6,117.5,121.4z"/>
			<path class="st14" d="M119.5,122.3c-0.6-0.4-1.4,0.5-0.6,1.1C119.8,123.9,120.5,122.9,119.5,122.3z"/>
			<path class="st14" d="M120.9,123.9c-0.6-0.6-1.7,0.2-0.9,1C120.7,125.8,121.7,124.8,120.9,123.9z"/>
			<path class="st14" d="M121.7,126.2c-0.2-0.9-1.6-0.8-1.4,0.4C120.6,127.9,122,127.6,121.7,126.2z"/>
			<path class="st14" d="M121.8,128.6c0.1-1-1.4-1.2-1.5,0C120.2,130,121.7,130.1,121.8,128.6z"/>
			<path class="st14" d="M121.1,131.2c0.4-1-1.1-1.8-1.6-0.4C118.9,132.2,120.5,132.7,121.1,131.2z"/>
			<path class="st14" d="M119.2,133.8c0.9-0.7,0-2.2-1.2-1.3C116.8,133.4,117.8,134.8,119.2,133.8z"/>
			<path class="st14" d="M116.1,135.1c0.9-0.2,0.8-1.6-0.4-1.4C114.5,134,114.8,135.4,116.1,135.1z"/>
			<path class="st14" d="M113.3,135.3c0.8,0.2,1.3-1.1,0.1-1.3C112.3,133.7,112.1,135,113.3,135.3z"/>
			<path class="st14" d="M110.8,134.5c0.7,0.2,1.2-0.8,0.2-1.1C110.1,133,109.7,134.1,110.8,134.5z"/>
			<path class="st14" d="M108.7,133.2c0.5,0.3,1.1-0.4,0.4-0.8C108.4,131.9,107.9,132.7,108.7,133.2z"/>
			<path class="st14" d="M106.7,131.7c0.4,0.3,0.9-0.4,0.3-0.7C106.5,130.6,106.1,131.3,106.7,131.7z"/>
		</g>
		<g>
			<path class="st14" d="M86.1,109.2c0.4,0.6-0.5,0.9-0.7,0.2C85.3,108.6,85.9,108.9,86.1,109.2z"/>
			<path class="st14" d="M85.4,107.8c0.3,0.5-0.2,1-0.6,0.4C84.4,107.6,85,107.1,85.4,107.8z"/>
			<path class="st14" d="M84.3,106.8c0.4,0.4,0,1-0.6,0.5C83.2,106.7,83.7,106.2,84.3,106.8z"/>
			<path class="st14" d="M82.9,105.9c0.5,0.2,0.3,1.2-0.4,0.9C81.7,106.5,82,105.6,82.9,105.9z"/>
			<path class="st14" d="M81.3,105.8c0.6,0.1,0.7,1.2-0.2,1.1C80.2,106.8,80.3,105.7,81.3,105.8z"/>
			<path class="st14" d="M79.5,106.2c0.6-0.3,1.2,0.7,0.4,1.1C79,107.7,78.5,106.7,79.5,106.2z"/>
			<path class="st14" d="M77.9,107.5c0.5-0.5,1.4,0.3,0.7,1C77.9,109.2,77.1,108.3,77.9,107.5z"/>
			<path class="st14" d="M76.7,109.3c0.4-0.7,1.6-0.2,1,0.8C77.1,111.1,76.1,110.4,76.7,109.3z"/>
			<path class="st14" d="M76.2,111.9c0-0.9,1.3-1.1,1.3,0.1C77.5,113.3,76.2,113.3,76.2,111.9z"/>
			<path class="st14" d="M76.8,114.2c-0.3-0.7,0.6-1.3,1-0.4C78.3,114.7,77.3,115.2,76.8,114.2z"/>
			<path class="st14" d="M77.8,116.2c-0.5-0.5,0.1-1.4,0.7-0.7C79.2,116.1,78.6,116.9,77.8,116.2z"/>
			<path class="st14" d="M79.6,117.5c-0.5-0.3-0.1-1.2,0.6-0.7C80.8,117.2,80.3,118,79.6,117.5z"/>
			<path class="st14" d="M81.5,118.5c-0.4-0.2-0.2-0.9,0.3-0.7C82.4,118,82.1,118.7,81.5,118.5z"/>
			<path class="st14" d="M83.3,119.2c-0.4-0.2-0.2-0.8,0.3-0.6C84.1,118.9,83.8,119.5,83.3,119.2z"/>
		</g>
		<path class="st13" d="M78,121.4c0.2,1.3,3.8,2.5,7.1,2.1c1.4,0.1,2.3,2.3-0.5,2.4C81.7,126,77.9,124.5,78,121.4z"/>
		<g>
			<path class="st14" d="M81.1,118.5c0.6,0.1,0.2,0.8-0.3,0.5C80.3,118.6,80.8,118.4,81.1,118.5z"/>
			<path class="st14" d="M80.1,117.6c0.4,0.1,0.4,0.7-0.2,0.6C79.3,118.1,79.4,117.5,80.1,117.6z"/>
			<path class="st14" d="M78.7,117.6c0.5,0,0.5,0.6-0.1,0.6C78,118.1,78,117.5,78.7,117.6z"/>
			<path class="st14" d="M77.4,118c0.4-0.2,0.8,0.5,0.3,0.8C77.1,119,76.8,118.3,77.4,118z"/>
			<path class="st14" d="M76.4,118.9c0.4-0.3,1.1,0.4,0.5,0.8C76.3,120.1,75.8,119.4,76.4,118.9z"/>
			<path class="st14" d="M75.8,120.4c0.2-0.5,1.1-0.2,0.8,0.5C76.3,121.6,75.4,121.2,75.8,120.4z"/>
			<path class="st14" d="M75.8,121.8c0.1-0.6,1-0.6,0.9,0.2C76.7,122.8,75.7,122.7,75.8,121.8z"/>
			<path class="st14" d="M76.2,123.3c-0.1-0.7,0.9-1,1.1,0C77.4,124.3,76.4,124.4,76.2,123.3z"/>
			<path class="st14" d="M77.3,125c-0.5-0.6,0.2-1.4,0.9-0.6C78.9,125.1,78.1,125.9,77.3,125z"/>
			<path class="st14" d="M78.9,126.2c-0.6-0.3-0.3-1.2,0.4-0.8C80.1,125.7,79.8,126.6,78.9,126.2z"/>
			<path class="st14" d="M80.7,127c-0.6,0-0.7-0.9,0.1-0.9C81.5,126.1,81.5,127,80.7,127z"/>
			<path class="st14" d="M82.3,127.2c-0.5,0-0.7-0.7,0-0.8C82.9,126.4,83.1,127.1,82.3,127.2z"/>
			<path class="st14" d="M84,126.9c-0.4,0.1-0.6-0.4-0.2-0.6C84.3,126.2,84.6,126.7,84,126.9z"/>
			<path class="st14" d="M85.5,126.8c-0.3,0.1-0.5-0.4-0.1-0.5C85.7,126.2,85.9,126.6,85.5,126.8z"/>
		</g>
		<g>
			<path class="st14" d="M92.7,124.2c0.4,0.5-0.4,0.9-0.8,0.2C91.6,123.8,92.4,123.9,92.7,124.2z"/>
			<path class="st14" d="M91.1,123.1c0.6,0.2,0.5,1-0.4,0.7C89.8,123.5,90.1,122.8,91.1,123.1z"/>
			<path class="st14" d="M89.1,122.8c0.7-0.1,1,1,0.1,1.1C88.3,124,88.1,122.9,89.1,122.8z"/>
			<path class="st14" d="M87.1,123.6c0.6-0.5,1.6,0.3,0.8,1C87,125.2,86.2,124.3,87.1,123.6z"/>
			<path class="st14" d="M85.7,125.5c0.3-0.7,1.7-0.5,1.3,0.5C86.6,127,85.3,126.6,85.7,125.5z"/>
			<path class="st14" d="M85.3,127.5c0-0.8,1.5-0.9,1.4,0.2C86.6,128.8,85.2,128.7,85.3,127.5z"/>
			<path class="st14" d="M85.7,129.8c-0.2-0.9,1.3-1.4,1.6-0.2C87.6,130.8,86,131.1,85.7,129.8z"/>
			<path class="st14" d="M87.1,132.2c-0.8-0.7,0.3-1.9,1.3-0.9C89.5,132.2,88.3,133.2,87.1,132.2z"/>
			<path class="st14" d="M89.9,133.7c-0.9-0.3-0.6-1.5,0.6-1.1C91.7,132.9,91.2,134.1,89.9,133.7z"/>
			<path class="st14" d="M92.7,133.4c-0.8,0-1.1-1.1,0.1-1.1C93.9,132.2,94,133.3,92.7,133.4z"/>
			<path class="st14" d="M95.1,132.2c-0.5,0.5-1.4,0-0.7-0.8C95.2,130.7,95.9,131.4,95.1,132.2z"/>
			<path class="st14" d="M96.9,130.5c-0.3,0.5-1.1,0.2-0.7-0.4C96.6,129.4,97.3,129.8,96.9,130.5z"/>
			<path class="st14" d="M98,128.9c-0.4,0.3-0.9-0.1-0.4-0.5C98.1,127.9,98.5,128.4,98,128.9z"/>
		</g>
		<path class="st16" d="M92.3,126.4c0.7,0.9,0.3,2.3-0.7,1C90.5,126.2,91.5,125.5,92.3,126.4z"/>
		<path class="st11" d="M90.4,100.7c2,0.3,0.5,3.6-1.2,3.6C87.1,104.4,87.7,100.3,90.4,100.7z"/>
		<path class="st11" d="M90.2,107.4c0.9-0.7,1.5,1.5,0.7,1.8C90,109.5,89.2,108.2,90.2,107.4z"/>
		<path class="st11" d="M91.8,97.8c1.1,0.4,0.2,1.9-0.9,1.6C90,99.2,90.7,97.4,91.8,97.8z"/>
		<path class="st11" d="M90.9,105c0.9-0.1,0.8,1.4,0,1.3C90.1,106.3,89.8,105.1,90.9,105z"/>
		<path class="st11" d="M105.8,125.9c2.1,0.9,0.8,3.8-0.9,2.2C103.2,126.6,103.4,124.9,105.8,125.9z"/>
		<path class="st11" d="M108.3,129c1.4,0,1,1.8-0.1,1.3C107.3,129.7,107.4,129,108.3,129z"/>
		<path class="st11" d="M103.7,123.8c0.8,0,1.1,1.3,0.1,1.3C102.8,125.1,103,123.8,103.7,123.8z"/>
		<path class="st11" d="M89.6,119c1.3-0.2,2.1,1.3,0.2,1.7C87.9,121,87.8,119.2,89.6,119z"/>
		<path class="st11" d="M87.1,118.4c0.7,0.1,0.8,1,0,1C86.3,119.3,85.9,118.2,87.1,118.4z"/>
		<path class="st11" d="M110.8,120.1c0.8-0.3,0.9,0.9,0.1,0.9C110.2,121,110.2,120.3,110.8,120.1z"/>
		<path class="st11" d="M112.4,114c1-0.1,1.4,1.4-0.2,1.7C110.7,115.9,111.1,114.1,112.4,114z"/>
		<path class="st11" d="M110,114.3c0.6,0,0.4,0.8,0,0.8C109.5,115.1,109.2,114.2,110,114.3z"/>
		<g>
			<path class="st18" d="M97.2,108.9c-2.1,1.2,0.1,3.8,1.5,2.6C100,110.4,98.8,108,97.2,108.9z"/>
			<path class="st19" d="M98,110.5c0-0.4,1-0.3,1,0C98.9,111.5,98,111.5,98,110.5z"/>
			<path class="st20" d="M97.3,110.4c-0.3,0-0.4,0.6,0,0.6C97.7,111,97.6,110.4,97.3,110.4z"/>
		</g>
		<g>
			<path class="st18" d="M106.4,107.5c2.3-0.5,2.6,2.8,0.8,3C105.7,110.6,105.4,107.8,106.4,107.5z"/>
			<path class="st19" d="M107.2,109.2c0-0.2,1.1-0.2,1,0.1C108.1,110.2,107.2,110.2,107.2,109.2z"/>
			<path class="st20" d="M106.3,108.8c0.3-0.2,0.5,0.3,0.2,0.5C106.2,109.6,106.1,109,106.3,108.8z"/>
		</g>
		<path class="st21" d="M100.9,111.8c1.3,0.2,3.3,0,4.2-0.7c-0.2,1.7-1.4,3.1-2.1,3.2C101.5,114.6,100.9,111.8,100.9,111.8z"/>
		<path class="st22" d="M101.3,112c-0.3,0.1,0.2,1.4,0.5,1.6c0.4,0.2,1.4-0.9,1.2-1.3C102.8,111.9,101.6,111.8,101.3,112z"/>
		<path class="st23" d="M122.4,117.4c-0.5,0-0.4,0.6,0,0.6C122.9,118,122.7,117.4,122.4,117.4z"/>
		<path class="st23" d="M122.4,119.5c-0.5,0-0.4,0.6,0,0.6C122.9,120.1,122.8,119.5,122.4,119.5z"/>
		<path class="st23" d="M121.5,121.9c-0.3-0.3-0.7,0.1-0.4,0.4C121.3,122.6,121.7,122.1,121.5,121.9z"/>
		<path class="st23" d="M121.6,115.7c-0.5,0-0.4,0.6,0,0.6C122.1,116.2,122,115.7,121.6,115.7z"/>
		<path class="st23" d="M120.5,114.5c-0.4,0-0.3,0.5,0,0.5C120.9,115,120.8,114.5,120.5,114.5z"/>
		<path class="st23" d="M119,113.7c-0.3,0-0.3,0.4,0,0.4C119.4,114.1,119.3,113.7,119,113.7z"/>
		<path class="st23" d="M117.5,113.6c-0.3,0-0.3,0.4,0,0.4S117.8,113.6,117.5,113.6z"/>
		<path class="st23" d="M115.9,113.9c-0.2,0.2,0,0.4,0.2,0.2C116.3,114,116.1,113.8,115.9,113.9z"/>
		<path class="st23" d="M114.9,115c-0.2,0.2,0,0.4,0.2,0.2C115.2,115.1,115,114.9,114.9,115z"/>
		<path class="st23" d="M114.5,116.6c0.1,0.3,0.3,0.1,0.2-0.1C114.7,116.3,114.4,116.5,114.5,116.6z"/>
		<path class="st23" d="M120.7,124.3c0,0-0.1-0.1-0.2-0.1c-0.1,0-0.1,0-0.2,0.1c0,0-0.1,0.1-0.1,0.1c0,0,0,0,0,0.1
			c0,0.1,0,0.1,0.1,0.2c0,0,0.1,0.1,0.2,0.1c0.1,0,0.1,0,0.2-0.1c0,0,0,0,0,0c0,0,0,0,0,0c0,0,0.1-0.1,0.1-0.2
			C120.8,124.4,120.7,124.3,120.7,124.3z"/>
		<path class="st23" d="M121.1,126.2c-0.3,0-0.3,0.5,0,0.5C121.4,126.7,121.4,126.2,121.1,126.2z"/>
		<path class="st23" d="M121.2,128.5c-0.4,0-0.4,0.6,0,0.6C121.5,129,121.5,128.5,121.2,128.5z"/>
		<path class="st23" d="M120.3,130.9c-0.2,0-0.3,0.1-0.3,0.3c0,0.2,0.1,0.3,0.3,0.3c0.2,0,0.3-0.1,0.3-0.3
			C120.6,131,120.4,130.9,120.3,130.9z"/>
		<path class="st23" d="M119,133.3c0-0.1,0-0.1-0.1-0.2c-0.1-0.1-0.2-0.1-0.3-0.1c-0.1,0-0.2,0-0.3,0.1c-0.1,0.1-0.1,0.2-0.1,0.3v0
			c0,0,0,0.1,0,0.1c0,0.1,0,0.1,0.1,0.2c0.1,0.1,0.2,0.1,0.3,0.1c0.1,0,0.2,0,0.3-0.1c0.1-0.1,0.1-0.2,0.1-0.3L119,133.3
			C119,133.3,119,133.3,119,133.3z"/>
		<path class="st23" d="M115.8,134.3c-0.2,0-0.3,0.1-0.3,0.3c0,0.2,0.1,0.3,0.3,0.3c0.2,0,0.3-0.1,0.3-0.3
			C116.1,134.5,116,134.3,115.8,134.3z"/>
		<path class="st23" d="M113.3,134.4c-0.4,0-0.4,0.6,0,0.6C113.6,135,113.7,134.4,113.3,134.4z"/>
		<path class="st23" d="M110.9,133.7c-0.3,0-0.4,0.5,0,0.5C111.2,134.2,111.2,133.7,110.9,133.7z"/>
		<path class="st23" d="M108.9,132.6c0,0-0.1-0.1-0.2-0.1c-0.1,0-0.1,0-0.2,0.1c0,0-0.1,0.1-0.1,0.2v0c0,0.1,0,0.1,0.1,0.2
			c0,0,0.1,0.1,0.2,0.1c0.1,0,0.1,0,0.2-0.1c0,0,0.1-0.1,0.1-0.2v0C109,132.7,109,132.6,108.9,132.6z"/>
		<path class="st23" d="M118,112.2c0,0-0.1,0-0.1-0.1c-0.1,0-0.2,0.1-0.2,0.1v0c0,0,0,0.1,0,0.1c0,0,0.1,0,0.1,0.1
			c0.1,0,0.2-0.1,0.2-0.1v0C118,112.2,118,112.2,118,112.2z"/>
		<path class="st23" d="M117.9,110.6c-0.3,0-0.3,0.4,0,0.4C118.1,111,118.2,110.6,117.9,110.6z"/>
		<path class="st23" d="M117.4,109c0,0-0.1-0.1-0.2-0.1h0c0,0,0,0-0.1,0c0,0-0.1,0-0.1,0.1c0,0-0.1,0.1-0.1,0.2c0,0.1,0,0.1,0.1,0.2
			c0,0,0.1,0.1,0.2,0.1h0c0,0,0,0,0.1,0c0,0,0.1,0,0.1-0.1c0,0,0.1-0.1,0.1-0.2C117.4,109.1,117.4,109,117.4,109z"/>
		<path class="st23" d="M116.4,107.6c0,0,0-0.1-0.1-0.1c0-0.1-0.1-0.1-0.2-0.1c-0.1,0-0.1,0-0.2,0.1c0,0-0.1,0.1-0.1,0.2v0
			c0,0,0,0,0,0.1c0,0,0,0.1,0.1,0.1c0,0.1,0.1,0.1,0.2,0.1c0.1,0,0.1,0,0.2-0.1C116.3,107.8,116.4,107.7,116.4,107.6L116.4,107.6
			L116.4,107.6z"/>
		<path class="st23" d="M114.7,106.7c-0.3,0-0.3,0.5,0,0.5C115,107.2,115,106.7,114.7,106.7z"/>
		<path class="st23" d="M113.3,106.5c-0.3,0-0.3,0.4,0,0.4C113.5,106.9,113.5,106.5,113.3,106.5z"/>
		<path class="st23" d="M112.1,106.8c0,0-0.1-0.1-0.1-0.1h0c-0.1,0-0.1,0-0.1,0c0,0-0.1,0.1-0.1,0.1c0,0.1,0,0.1,0,0.1
			c0,0,0.1,0.1,0.1,0.1h0c0.1,0,0.1,0,0.1,0c0,0,0.1-0.1,0.1-0.1C112.2,106.9,112.2,106.8,112.1,106.8z"/>
		<path class="st23" d="M110.9,107.5c-0.2,0-0.3,0.4,0,0.4C111.1,107.9,111.1,107.5,110.9,107.5z"/>
		<path class="st23" d="M110.3,108.5c-0.2,0-0.3,0.4,0,0.4C110.5,108.8,110.5,108.5,110.3,108.5z"/>
		<path class="st23" d="M110.2,109.8c-0.2,0-0.2,0.3,0,0.3C110.3,110.1,110.3,109.8,110.2,109.8z"/>
		<path class="st23" d="M110.8,111.2c-0.2,0-0.2,0.3,0,0.3C110.9,111.5,111,111.2,110.8,111.2z"/>
		<path class="st23" d="M106.9,131.1c-0.2,0-0.3,0.4,0,0.4C107.1,131.5,107.1,131.1,106.9,131.1z"/>
		<path class="st23" d="M97.9,128.4c0,0-0.1-0.1-0.1-0.1h0c0,0-0.1,0-0.1,0c0,0-0.1,0.1-0.1,0.1c0,0,0,0.1,0,0.1
			c0,0,0.1,0.1,0.1,0.1h0c0,0,0.1,0,0.1,0c0,0,0.1-0.1,0.1-0.1C98,128.5,98,128.4,97.9,128.4z"/>
		<path class="st23" d="M96.6,130.1c-0.2,0-0.3,0.4,0,0.4C96.8,130.5,96.9,130.1,96.6,130.1z"/>
		<path class="st23" d="M94.9,131.6c-0.3,0-0.4,0.5,0,0.5C95.2,132.1,95.2,131.6,94.9,131.6z"/>
		<path class="st23" d="M92.8,132.7c-0.2,0-0.3,0.1-0.3,0.3c0,0.2,0.1,0.3,0.3,0.3c0.2,0,0.3-0.1,0.3-0.3
			C93.1,132.8,92.9,132.7,92.8,132.7z"/>
		<path class="st23" d="M90.3,133c-0.4,0-0.4,0.6,0,0.6C90.6,133.6,90.7,133,90.3,133z"/>
		<path class="st23" d="M88.1,131.7c0-0.1,0-0.1-0.1-0.2c-0.1-0.1-0.1-0.1-0.2-0.1c-0.1,0-0.2,0-0.2,0.1c-0.1,0.1-0.1,0.1-0.1,0.2v0
			c0,0,0,0.1,0,0.1c0,0.1,0,0.1,0.1,0.2c0.1,0.1,0.1,0.1,0.2,0.1c0.1,0,0.2,0,0.2-0.1c0.1-0.1,0.1-0.1,0.1-0.2L88.1,131.7
			C88.1,131.8,88.1,131.8,88.1,131.7z"/>
		<path class="st23" d="M86.3,129.5c-0.2,0-0.4,0.1-0.4,0.3c0,0.2,0.1,0.4,0.3,0.4c0.2,0,0.4-0.1,0.4-0.3
			C86.7,129.7,86.5,129.5,86.3,129.5z"/>
		<path class="st23" d="M85.8,127.4c-0.2,0-0.3,0.1-0.3,0.3c0,0.2,0.1,0.3,0.3,0.3c0.2,0,0.3-0.1,0.3-0.3
			C86.1,127.6,86,127.4,85.8,127.4z"/>
		<path class="st23" d="M86.2,125.4c-0.2,0-0.3,0.1-0.3,0.3c0,0.2,0.1,0.3,0.3,0.3c0.2,0,0.3-0.1,0.3-0.3
			C86.5,125.6,86.3,125.4,86.2,125.4z"/>
		<path class="st23" d="M87.6,123.8c-0.1-0.1-0.1-0.1-0.2-0.1h0c0,0-0.1,0-0.1,0c-0.1,0-0.1,0-0.1,0.1c-0.1,0.1-0.1,0.1-0.1,0.2
			c0,0.1,0,0.2,0.1,0.2c0.1,0.1,0.1,0.1,0.2,0.1h0c0,0,0.1,0,0.1,0c0.1,0,0.1,0,0.1-0.1c0.1-0.1,0.1-0.1,0.1-0.2
			S87.6,123.9,87.6,123.8z"/>
		<path class="st23" d="M89.1,123c-0.3,0-0.4,0.5,0,0.5C89.4,123.5,89.4,123,89.1,123z"/>
		<path class="st23" d="M90.9,123.1c-0.3,0-0.3,0.5,0,0.5C91.1,123.5,91.2,123.1,90.9,123.1z"/>
		<path class="st23" d="M92.4,124.1c-0.2,0-0.3,0.4,0,0.4C92.6,124.5,92.6,124.1,92.4,124.1z"/>
		<path class="st23" d="M85.4,126.5c-0.2,0-0.2,0.2,0,0.2C85.5,126.7,85.6,126.5,85.4,126.5z"/>
		<path class="st23" d="M84,126.5c-0.2,0-0.2,0.3,0,0.3C84.2,126.9,84.2,126.5,84,126.5z"/>
		<path class="st23" d="M82.3,126.7c-0.3,0-0.3,0.4,0,0.4C82.6,127.1,82.6,126.7,82.3,126.7z"/>
		<path class="st23" d="M80.8,126.4c-0.3,0-0.3,0.4,0,0.4C81,126.8,81,126.4,80.8,126.4z"/>
		<path class="st23" d="M79.1,125.7c-0.3,0-0.3,0.4,0,0.4C79.3,126.2,79.4,125.7,79.1,125.7z"/>
		<path class="st23" d="M77.7,124.6c-0.4,0-0.4,0.5,0,0.5C78,125.1,78.1,124.6,77.7,124.6z"/>
		<path class="st23" d="M76.8,123.2c0-0.1-0.1-0.1-0.2-0.1h0c0,0,0,0-0.1,0c0,0-0.1,0-0.1,0.1c-0.1,0-0.1,0.1-0.1,0.2
			c0,0.1,0,0.1,0.1,0.2c0,0.1,0.1,0.1,0.2,0.1h0c0,0,0,0,0.1,0c0,0,0.1,0,0.1-0.1c0.1,0,0.1-0.1,0.1-0.2
			C76.9,123.4,76.8,123.3,76.8,123.2z"/>
		<path class="st23" d="M76.1,121.7c-0.3,0-0.3,0.5,0,0.5C76.4,122.2,76.4,121.7,76.1,121.7z"/>
		<path class="st23" d="M76.1,120.4c-0.3,0-0.3,0.5,0,0.5C76.3,120.8,76.4,120.4,76.1,120.4z"/>
		<path class="st23" d="M76.5,119.1c-0.3,0-0.3,0.4,0,0.4C76.8,119.5,76.8,119.1,76.5,119.1z"/>
		<path class="st23" d="M77.5,118.1c-0.2,0-0.3,0.4,0,0.4C77.7,118.5,77.7,118.1,77.5,118.1z"/>
		<path class="st23" d="M78.6,117.7c-0.2,0-0.2,0.3,0,0.3C78.8,117.9,78.8,117.7,78.6,117.7z"/>
		<path class="st23" d="M80,117.7L80,117.7c-0.1,0-0.1,0-0.1,0c0,0,0,0.1,0,0.1c0,0.1,0.1,0.1,0.1,0.1h0c0,0,0.1,0,0.1,0
			c0,0,0-0.1,0-0.1C80.1,117.7,80,117.7,80,117.7z"/>
		<path class="st23" d="M81,118.5c-0.2,0-0.2,0.2,0,0.2C81.1,118.8,81.1,118.5,81,118.5z"/>
		<path class="st23" d="M85.9,109.2c-0.2,0-0.3,0.4,0,0.4C86.1,109.6,86.1,109.2,85.9,109.2z"/>
		<path class="st23" d="M85.4,107.8c0,0-0.1-0.1-0.1-0.1h0c-0.1,0-0.1,0-0.1,0c0,0-0.1,0.1-0.1,0.1c0,0.1,0,0.1,0,0.1
			c0,0,0.1,0.1,0.1,0.1h0c0.1,0,0.1,0,0.1,0c0,0,0.1-0.1,0.1-0.1C85.4,107.9,85.4,107.8,85.4,107.8z"/>
		<path class="st23" d="M84.1,106.7c-0.3,0-0.3,0.4,0,0.4C84.3,107.1,84.3,106.7,84.1,106.7z"/>
		<path class="st23" d="M82.9,106.2c0,0,0-0.1-0.1-0.1c0,0-0.1-0.1-0.2-0.1s-0.1,0-0.2,0.1c0,0-0.1,0.1-0.1,0.2v0c0,0,0,0,0,0.1
			c0,0,0,0.1,0.1,0.1c0,0,0.1,0.1,0.2,0.1s0.1,0,0.2-0.1C82.8,106.4,82.9,106.3,82.9,106.2L82.9,106.2
			C82.9,106.2,82.9,106.2,82.9,106.2z"/>
		<path class="st23" d="M81.1,106c-0.3,0-0.3,0.5,0,0.5C81.4,106.5,81.4,106,81.1,106z"/>
		<path class="st23" d="M79.8,106.6c0,0,0-0.1-0.1-0.1c0-0.1-0.1-0.1-0.2-0.1c-0.1,0-0.1,0-0.2,0.1c-0.1,0-0.1,0.1-0.1,0.2v0l0,0.1
			c0,0,0,0.1,0.1,0.1c0,0.1,0.1,0.1,0.2,0.1c0.1,0,0.1,0,0.2-0.1c0.1,0,0.1-0.1,0.1-0.2L79.8,106.6L79.8,106.6z"/>
		<path class="st23" d="M78.2,107.7c-0.4,0-0.4,0.5,0,0.5C78.5,108.2,78.6,107.7,78.2,107.7z"/>
		<path class="st23" d="M77.1,109.5c-0.4,0-0.4,0.5,0,0.5C77.4,110,77.5,109.5,77.1,109.5z"/>
		<path class="st23" d="M76.7,111.9c-0.4,0-0.4,0.6,0,0.6C77.1,112.4,77.1,111.9,76.7,111.9z"/>
		<path class="st23" d="M77.3,113.7c-0.4,0-0.4,0.6,0,0.6C77.6,114.3,77.7,113.7,77.3,113.7z"/>
		<path class="st23" d="M78.2,115.7c-0.3,0-0.4,0.5,0,0.5C78.5,116.2,78.6,115.7,78.2,115.7z"/>
		<path class="st23" d="M80,117c-0.3,0-0.3,0.5,0,0.5C80.2,117.5,80.3,117,80,117z"/>
		<path class="st23" d="M81.7,118c-0.3,0-0.3,0.4,0,0.4C82,118.5,82,118,81.7,118z"/>
		<path class="st23" d="M83.6,118.9c-0.2,0-0.3,0.4,0,0.4C83.8,119.2,83.8,118.9,83.6,118.9z"/>
	</g>
</g>
</svg>
