<?xml version="1.0" encoding="utf-8"?>
<!-- Generator: Adobe Illustrator 24.3.0, SVG Export Plug-In . SVG Version: 6.00 Build 0)  -->
<svg version="1.1" id="Capa_1" xmlns:v="https://vecta.io/nano"
	 xmlns="http://www.w3.org/2000/svg" xmlns:xlink="http://www.w3.org/1999/xlink" x="0px" y="0px" viewBox="0 0 123.9 131.8"
	 style="enable-background:new 0 0 123.9 131.8;" xml:space="preserve">
<style type="text/css">
	.st0{clip-path:url(#SVGID_2_);}
	.st1{opacity:0.1;}
	.st2{fill-rule:evenodd;clip-rule:evenodd;fill:#606063;}
	.st3{fill:#BEBEBE;}
	.st4{fill:#FAF9FA;}
	.st5{fill-rule:evenodd;clip-rule:evenodd;fill:#633001;}
	.st6{fill:#FEDC90;}
	.st7{fill:#D1884F;}
	.st8{fill-rule:evenodd;clip-rule:evenodd;fill:url(#SVGID_3_);}
	.st9{fill:#9E7200;}
	.st10{fill:#F0B90B;}
	.st11{fill:#E23040;}
	.st12{fill:#FF7881;}
	.st13{fill:#FC5161;}
	.st14{fill:#FFBFBF;}
	.st15{fill:#FF9B2E;}
	.st16{fill:#F9C55D;}
	.st17{fill:#FF7176;}
	.st18{fill:#0A101B;}
	.st19{fill:#2A6589;}
	.st20{fill:#FFDBCC;}
	.st21{fill:#7A0000;}
	.st22{fill:#3F0000;}
	.st23{fill:#FF8F8F;}
	.st24{fill:#DB3A4D;}
	.st25{opacity:0.49;}
	.st26{opacity:0.54;fill:#FFFFFF;}
	.st27{fill:#EFB9B9;}
	.st28{fill-rule:evenodd;clip-rule:evenodd;fill:#FC5161;}
	.st29{fill:#DD3C50;}
	.st30{fill:#298C8E;}
	.st31{fill:#2DA9B1;}
	.st32{fill:#27999B;}
	.st33{fill:#6CD5D8;}
	.st34{opacity:0.2;fill:#2DA9B1;}
	.st35{fill:url(#SVGID_4_);}
	.st36{fill:url(#SVGID_5_);}
	.st37{fill:#FFCE19;}
	.st38{opacity:0.1;fill:#DD3C50;}
</style>
<g>
	<g>
		<path class="st1" d="M100,64.1c-3.2-9.9-11.6-12.3-17.8-12.7c-0.4-1.5-0.8-3.1-1.2-4.6c-0.6-2.5-1.3-4.9-1.9-7.4
			c-0.2-0.7-0.3-1.3-0.5-2c0.2-0.1,0.5-0.2,0.7-0.3c-1.3-5.3-2.4-11.2-3.4-15.9c0,0,0,0,0,0c-0.1,0-2.1-0.6-4.9,0.2
			c-1.8,0.5-3.5,1.8-4.2,2.3c1.1,4.8,2.8,10,4.1,15.5c1.9-0.2,4.9-0.8,7-1.5c-1.9,0.8-3.9,1.4-6,1.6c0.1,0.5,0.3,1,0.4,1.5
			c0.7,2.6,1.3,5.1,2,7.7c0.3,1.1,0.6,2.2,0.9,3.3c-0.2,0-0.4,0.1-0.4,0.1L27.6,65c0,0-17.5,5.6-14.7,20
			c2.9,14.3,12.1,24.6,23.7,21.9c7.2-1.7,12.2-7,16.5-11.8c0.7,0.8,1.8,1.8,3.1,2.6c2.1,1.5,4.9,2.6,7.7,1.7c4.1-1.3,6.4-5,7.4-7.3
			c0.5-1.1,0.7-1.9,0.7-1.9l-0.3-1c4,1.7,8.4,3.6,13.2,3.1c1.6,7.7,2.4,14.9,1.1,18.8c-0.8,2.5-2.6,3.7-4,4.3
			c-2.6,1.1-5.9,1-8.7-0.2c-0.2-0.1-0.4-0.2-0.6-0.3c-0.3-0.1-0.5-0.3-0.7-0.4c0.2-0.3,0.5-0.5,0.7-0.8c1.2-2.4-3.3-7.8-4.1-9
			l-1.6,1.2l-8.9,6.6l-0.2,0.2c0.4,0.6,4.5,8.1,7.5,7.2c0.4-0.2,0.9-0.4,1.3-0.7c0.6,0.5,1.3,1,2.1,1.5c0.5,0.3,1.1,0.6,1.6,0.8
			c1.7,0.7,3.4,1.2,5.2,1.5c3.1,0.4,6.3,0,9.1-1.2c3.8-1.6,6.6-4.7,7.9-8.5c1.9-5.6,0.9-14.1-1-23.2C100.5,86.1,104.8,78.9,100,64.1
			z"/>
		<path class="st1" d="M66.7,23.7C66.4,23.9,66.7,23.7,66.7,23.7L66.7,23.7z"/>
	</g>
	<g>
		<path class="st29" d="M78.4,86.1c0.5-1.1,0.7-1.9,0.7-1.9l-0.6-2.1c-0.6-0.3-6.7-3.9-11.4-1.5c-4.7,2.4-8,7.2-8,7.2
			s1.7,2.2,4.2,3.9c1-2.6,2.8-4.6,4.5-5.9C71.1,83.8,74.9,84.4,78.4,86.1z"/>
		<path class="st13" d="M67.8,85.8c-1.7,1.3-3.5,3.3-4.5,5.9c2.1,1.5,4.9,2.6,7.7,1.7c4.1-1.3,6.4-5,7.4-7.3
			C74.9,84.4,71.1,83.8,67.8,85.8z"/>
		<g>
			<path class="st30" d="M82.8,15.2c-0.1,0-2.1-0.6-4.9,0.2c-1.8,0.5-3.5,1.8-4.2,2.3C77.1,19.6,81.4,16.9,82.8,15.2z"/>
			<path class="st31" d="M82.9,15.2C82.9,15.2,82.8,15.2,82.9,15.2c-1.3,1.2-5.8,4.3-9.1,2.5c-0.3,0.2,0,0,0,0
				c1.1,4.8,2.8,10,4.1,15.5c2.4-0.2,6.3-1,8.4-2C84.9,25.8,83.9,19.9,82.9,15.2z"/>
			<path class="st13" d="M94.8,68.2c-0.8-3.1-1.6-6-2.2-8.7c-1.4-5.8-3-12.1-4.7-18.7c-0.6-2.5-1.3-4.9-1.9-7.4
				c-2,1-4.3,1.6-6.9,1.4c0.7,2.6,1.3,5.1,2,7.7c1.7,6.6,3.3,12.9,4.7,18.6c0.6,2.7,1.4,5.7,2.2,8.8c3.1,12,7.3,28.4,5,35.2
				c-0.8,2.5-2.6,3.7-4,4.3c-2.6,1.1-5.9,1-8.7-0.2c-0.2-0.1-0.4-0.2-0.6-0.3c-1.2,2-2.5,3.9-3.9,5.8c0.5,0.3,1.1,0.6,1.6,0.8
				c1.7,0.7,3.4,1.2,5.2,1.5c3.1,0.4,6.3,0,9.1-1.2c3.8-1.6,6.6-4.7,7.9-8.5C102.7,98.6,98.5,82.4,94.8,68.2z"/>
			<path class="st29" d="M85.6,31.4c-2.1,1-4.4,1.7-6.7,1.9c0.1,0.5,0.3,1,0.4,1.5c2.6,0.2,4.9-0.4,6.9-1.4
				C85.9,32.7,85.7,32,85.6,31.4z"/>
			<path class="st29" d="M78.7,108.3c-1.6,1.9-3.4,3.6-5.6,4.4c0.8,0.8,1.7,1.4,2.8,2c1.4-1.9,2.7-3.9,3.9-5.8
				C79.4,108.8,79,108.5,78.7,108.3z"/>
			<path class="st32" d="M76.1,107c2-2.9,0.1-5.1-2.1-7l-8.9,6.6C68.6,111.1,72.6,110.6,76.1,107z"/>
			<path class="st31" d="M75.7,98.8l-1.6,1.2c2.2,1.9,4,4.1,2.1,7c-3.5,3.6-7.5,4.1-11-0.4l-0.2,0.2c0.4,0.6,4.5,8.1,7.5,7.2
				c2.2-0.8,5.8-4.3,7.3-6.2C80.9,105.4,76.5,100,75.7,98.8z"/>
		</g>
		<path class="st31" d="M34.6,59l47.1-13.1c0,0,19.9-4.5,25.3,12.2c5.4,16.7-0.7,23.8-11.8,27.6C84.1,89.4,74.8,78,67.9,82
			c-6.9,4-12.7,16.2-24.3,18.9C32,103.5,22.8,93.3,19.9,79C17.1,64.6,34.6,59,34.6,59z"/>
		<path class="st33" d="M103.8,59.4c-1.3-4.7-4-7.4-7-8.8c-6-2.9-13.3-0.7-13.3-0.7L31.8,65c-4.1,2.2-6.1,6.8-6.8,10.9
			c-0.7,4.1,2.4,21.2,13.6,21c0.1,0,0.2,0,0.3,0C50.4,96.3,58.3,81.4,67.5,79c7.8-2,14.2,5.7,27.4,2.2
			C104.1,78.8,107.8,73.7,103.8,59.4z"/>
		<path class="st34" d="M31.5,71c2.7-5,42.7-14.7,65.3-20.5c-6-2.9-13.3-0.7-13.3-0.7L31.8,65c-4.1,2.2-6.1,6.8-6.8,10.9
			c-0.7,4.1,2.4,21.2,13.6,21C32.8,89.9,26.2,76,31.5,71z"/>
		
			<linearGradient id="SVGID_2_" gradientUnits="userSpaceOnUse" x1="38.6155" y1="-21.7162" x2="88.7801" y2="-100.0471" gradientTransform="matrix(0.9918 0.128 -0.128 0.9918 1.8277 106.9637)">
			<stop  offset="0" style="stop-color:#E8EEFF;stop-opacity:0"/>
			<stop  offset="2.708806e-02" style="stop-color:#E9EFFF;stop-opacity:1.361042e-02"/>
			<stop  offset="0.5743" style="stop-color:#F9FBFF;stop-opacity:0.2886"/>
			<stop  offset="0.9951" style="stop-color:#FFFFFF;stop-opacity:0.5"/>
		</linearGradient>
		<path style="fill:url(#SVGID_2_);" d="M52.7,58.9c-5.2,12.6-10.3,25.2-14.7,38c0.2,0,0.4,0,0.7,0c0.1,0,0.2,0,0.3,0
			C50.4,96.3,58.3,81.4,67.5,79c0.6-0.2,1.2-0.2,1.8-0.3c3.5-9.4,7.4-18.6,11.1-28L52.7,58.9z"/>
		
			<linearGradient id="SVGID_3_" gradientUnits="userSpaceOnUse" x1="57.7322" y1="-9.4742" x2="107.8966" y2="-87.8048" gradientTransform="matrix(0.9918 0.128 -0.128 0.9918 1.8277 106.9637)">
			<stop  offset="0" style="stop-color:#E8EEFF;stop-opacity:0"/>
			<stop  offset="2.708806e-02" style="stop-color:#E9EFFF;stop-opacity:1.361042e-02"/>
			<stop  offset="0.5743" style="stop-color:#F9FBFF;stop-opacity:0.2886"/>
			<stop  offset="0.9951" style="stop-color:#FFFFFF;stop-opacity:0.5"/>
		</linearGradient>
		<path style="fill:url(#SVGID_3_);" d="M103.8,59.4c-1.3-4.7-4-7.4-7-8.8c-3-1.4-6.2-1.6-8.8-1.5C84,59.3,80.2,69.6,76.6,80
			c4.8,1.4,10.3,3.4,18.3,1.3C104.1,78.8,107.8,73.7,103.8,59.4z"/>
		<g>
			<path class="st30" d="M82.8,15.2c-0.1,0-2.1-0.6-4.9,0.2c-1.8,0.5-3.5,1.8-4.2,2.3C77.1,19.6,81.4,16.9,82.8,15.2z"/>
			<path class="st38" d="M94.8,68.2c-0.8-3.1-1.6-6-2.2-8.7c-0.6-2.5-1.2-4.7-1.9-7.4c-2.3,0.8-4.4,1.2-6.8,1.6
				c0.7,2.6,1.3,4.9,1.8,7.3c0.6,2.7,1.4,5.7,2.2,8.8c1,3.8,2.1,7.9,3,12.1c2.4-0.1,4.9-0.9,7-1.8C97.1,76.4,95.8,72,94.8,68.2z"/>
		</g>
	</g>
</g>
</svg>
